<?xml version="1.0" encoding="UTF-8" standalone="no"?>
<!-- Created with Inkscape (http://www.inkscape.org/) -->

<svg
   width="80.639206mm"
   height="25.979214mm"
   viewBox="0 0 80.639206 25.979214"
   version="1.1"
   id="svg1"
   inkscape:version="1.4 (e7c3feb1, 2024-10-09)"
   sodipodi:docname="q4ologo.svg"
   xmlns:inkscape="http://www.inkscape.org/namespaces/inkscape"
   xmlns:sodipodi="http://sodipodi.sourceforge.net/DTD/sodipodi-0.dtd"
   xmlns="http://www.w3.org/2000/svg"
   xmlns:svg="http://www.w3.org/2000/svg">
  <sodipodi:namedview
     id="namedview1"
     pagecolor="#ffffff"
     bordercolor="#000000"
     borderopacity="0.25"
     inkscape:showpageshadow="2"
     inkscape:pageopacity="0.0"
     inkscape:pagecheckerboard="0"
     inkscape:deskcolor="#d1d1d1"
     inkscape:document-units="mm"
     inkscape:zoom="1.4929111"
     inkscape:cx="106.50333"
     inkscape:cy="162.76924"
     inkscape:window-width="2048"
     inkscape:window-height="1191"
     inkscape:window-x="0"
     inkscape:window-y="46"
     inkscape:window-maximized="1"
     inkscape:current-layer="layer1" />
  <defs
     id="defs1" />
  <g
     inkscape:label="Layer 1"
     inkscape:groupmode="layer"
     id="layer1"
     transform="translate(-34.977152,-92.304196)">
    <path
       d="m 61.626615,114.36758 -2.540002,-2.15194 c 1.375834,-2.04611 2.187224,-4.48028 2.187224,-7.09084 v -0.0706 c 0,-7.020278 -5.46806,-12.700004 -13.088065,-12.700004 -7.620005,0 -13.15862,5.750282 -13.15862,12.770564 v 0.0706 c 0,7.02028 5.468059,12.7 13.088065,12.7 2.751668,0 5.256392,-0.77611 7.337782,-2.11666 l 2.716391,2.43416 z m -13.440843,-1.48166 c -4.374447,0 -7.478894,-3.52778 -7.478894,-7.76112 v -0.0706 c 0,-4.23333 3.033891,-7.690556 7.408339,-7.690556 4.374447,0 7.478894,3.527776 7.478894,7.761116 v 0.0706 c 0,1.23472 -0.246945,2.39889 -0.670279,3.38666 l -4.056947,-3.66889 -3.457224,3.88056 4.021669,3.42195 c -0.952501,0.45861 -2.046113,0.67028 -3.245558,0.67028 z m 28.998367,4.58611 h 5.185837 v -5.32695 h 3.316113 v -4.40972 H 82.369976 V 92.601181 h -4.586115 l -13.546675,15.698619 0.881945,3.84528 h 12.065008 z m -6.561671,-9.73667 6.561671,-7.69056 v 7.69056 z m 31.785272,10.16 c 7.62,0 13.15862,-5.75028 13.15862,-12.77056 v -0.0706 c 0,-7.020278 -5.46806,-12.700004 -13.08807,-12.700004 -7.620004,0 -13.158619,5.750282 -13.158619,12.770564 v 0.0706 c 0,7.02028 5.468059,12.7 13.088069,12.7 z m 0.0705,-5.00944 c -4.374447,0 -7.478893,-3.52778 -7.478893,-7.76112 v -0.0706 c 0,-4.23333 3.033891,-7.690556 7.408343,-7.690556 4.37444,0 7.47889,3.527776 7.47889,7.761116 v 0.0706 c 0,4.23333 -3.03389,7.69056 -7.40834,7.69056 z"
       id="text1"
       style="fill:#0a0a0a;stroke:none"
       aria-label="Q4O"
       sodipodi:nodetypes="ccsssssscccssssssccccsccccccccccccccccssssssssssssss" />
  </g>
</svg>
