<?xml version="1.0" encoding="UTF-8" standalone="no"?>
<svg
   width="300"
   height="150"
   version="1.1"
   id="svg1"
   sodipodi:docname="afdas.svg"
   inkscape:version="1.4 (86a8ad7, 2024-10-11)"
   xmlns:inkscape="http://www.inkscape.org/namespaces/inkscape"
   xmlns:sodipodi="http://sodipodi.sourceforge.net/DTD/sodipodi-0.dtd"
   xmlns="http://www.w3.org/2000/svg"
   xmlns:svg="http://www.w3.org/2000/svg">
  <defs
     id="defs1" />
  <sodipodi:namedview
     id="namedview1"
     pagecolor="#ffffff"
     bordercolor="#000000"
     borderopacity="0.25"
     inkscape:showpageshadow="2"
     inkscape:pageopacity="0.0"
     inkscape:pagecheckerboard="0"
     inkscape:deskcolor="#d1d1d1"
     inkscape:zoom="2.3787122"
     inkscape:cx="124.01668"
     inkscape:cy="135.15716"
     inkscape:window-width="2048"
     inkscape:window-height="1215"
     inkscape:window-x="-8"
     inkscape:window-y="-8"
     inkscape:window-maximized="1"
     inkscape:current-layer="svg1" />
  <path
     d="m 220.41295,73.250915 v -4.785686 c -8.93447,-0.08094 -24.33487,-1.664434 -24.34895,10.044663 a 8.8148134,8.8148134 0 0 0 9.14911,9.106882 c 7.94565,0 15.19631,-6.362148 15.19631,-14.367617 M 198.2809,56.91272 h -14.18287 v -1.032793 c 0,-11.015878 9.91094,-19.195532 25.37293,-19.195532 15.71887,0 25.11606,9.210689 25.11606,22.035274 v 39.163462 h -8.46645 l -5.70762,-8.607201 c -2.73419,4.562238 -8.45765,9.467571 -18.70993,9.467571 -11.36778,0.002 -19.64595,-7.401984 -19.64595,-18.247195 0,-13.512529 10.07985,-19.452412 25.28673,-19.452412 h 13.06915 v -2.324225 c 0,-5.077755 -3.75994,-10.241723 -11.19359,-10.241723 -6.40613,0 -10.93494,3.098381 -10.93494,7.401981 z M 52.002502,73.250915 V 68.465229 C 43.069804,68.38078 27.669393,66.797275 27.657077,78.509892 a 8.8148134,8.8148134 0 0 0 9.149107,9.106882 c 7.945649,0 15.199836,-6.362148 15.199836,-14.367617 M 29.877495,56.91272 H 15.694619 v -1.032793 c 0,-11.017638 9.916224,-19.195532 25.372939,-19.195532 15.718871,0 25.11606,9.210689 25.11606,22.035274 V 97.883131 H 57.717174 L 52.002502,89.27593 c -2.734177,4.562238 -8.457648,9.467571 -18.709927,9.467571 -11.360728,0.002 -19.645949,-7.401984 -19.645949,-18.247195 0,-13.514289 10.079854,-19.452412 25.286727,-19.452412 h 13.069149 v -2.324225 c 0,-5.077755 -3.759932,-10.241723 -11.193583,-10.241723 -6.406135,0 -10.934943,3.098381 -10.934943,7.401981 z m 58.012381,-6.286493 v 10.243482 h 25.008734 v 12.71726 H 87.889876 V 97.879611 H 73.615509 V 37.629217 h 43.057111 v 12.99701 z M 272.3482,80.754944 c 0,-3.960509 -5.89413,-5.938123 -12.38649,-8.093442 -10.42294,-3.613898 -19.05125,-6.970916 -19.05125,-18.505831 0,-9.726205 7.77499,-17.473036 22.29743,-17.473036 11.10385,0 21.69922,7.058889 23.06631,19.45417 h -14.26733 c -0.42755,-4.222664 -4.52881,-6.627824 -9.14911,-6.627824 -5.55105,0 -7.94564,1.893161 -7.94564,4.562237 0,3.443232 5.04256,4.991543 9.99539,6.712279 12.14017,4.131174 21.44586,8.093441 21.44586,19.366197 0,11.878005 -10.25227,18.592047 -22.5543,18.592047 -12.72782,0 -22.80943,-7.489957 -24.26097,-19.881718 h 14.26732 c 0.68267,4.820875 5.03905,7.058888 10.5074,7.058888 4.95636,0 8.03186,-1.634523 8.03186,-5.163967 M 135.48283,50.073762 c 21.61476,-0.218171 31.97438,15.212151 31.97438,19.755035 -0.4082,10.15551 -19.86237,14.851465 -31.61722,16.398016 0.0176,-1.159473 -0.32901,-27.906537 -0.35189,-36.153051 m 42.98322,19.755035 c -0.0229,-5.160449 -1.62221,-18.338682 -27.58808,-30.459491 a 38.521262,38.521262 0 0 0 -19.84652,-3.022725 c -1.27208,0.188261 -8.23068,1.696104 -8.4031,3.223301 -0.17244,1.527198 -0.82694,24.723705 -0.42579,28.12295 0.40115,3.399246 0.0387,17.473036 0.0281,21.993048 0,4.676602 3.39396,7.991391 8.76555,9.080491 0.77064,0.15307 8.34328,2.243289 19.88172,-1.23161 25.89901,-7.064169 27.60919,-22.543756 27.58808,-27.705964 M 17.056428,122.49422 h 2.463222 a 6.0243356,6.0243356 0 0 0 2.012803,-0.27799 2.4632213,2.4632213 0 0 0 1.639801,-2.68667 v -0.0229 c 0,-2.18523 -1.330138,-2.96993 -3.772247,-2.96993 h -2.343579 z m 2.396363,-7.25945 a 7.9403699,7.9403699 0 0 1 2.753529,0.43458 3.694832,3.694832 0 0 1 2.463221,3.84966 v 0.0335 a 4.3722178,4.3722178 0 0 1 -0.621084,2.46322 4.9528343,4.9528343 0 0 1 -4.451392,1.79463 H 15.59609 v -8.57553 z m 10.505639,8.57376 v -8.57376 h 8.021304 v 1.26855 h -6.596155 v 2.43507 h 5.579197 v 1.25624 h -5.579197 v 2.30312 h 6.835439 v 1.31254 z m 14.80396,0 h -1.433947 v -8.57376 h 1.407555 l 3.721224,3.97809 3.817993,-3.97809 h 1.33014 v 8.57552 h -1.437466 v -6.53809 l -3.675478,3.77576 H 48.33582 l -3.578709,-3.76344 z m 16.901216,-3.37461 h 3.870777 l -1.961779,-3.82679 z m -0.610526,1.23161 -1.064464,2.14652 h -1.604613 l 4.416204,-8.57553 h 1.544792 l 4.488342,8.57553 h -1.5835 l -1.101412,-2.14652 z m 12.347776,0.75832 h 2.299593 v -5.85015 h -2.299593 v -1.33893 h 6.008501 v 1.33893 h -2.297834 v 5.85015 h 2.297834 v 1.38644 h -6.008501 z m 12.722539,1.38468 h -1.435706 v -8.57376 h 1.502565 l 5.663648,6.20203 0.334295,0.42051 v -6.62254 h 1.42515 v 8.57552 h -1.407556 l -5.756899,-6.32344 -0.323739,-0.40115 z m 21.240005,-0.10738 a 3.2831222,3.2831222 0 0 1 -2.35238,-2.91892 h 1.59406 c 0.27447,1.48321 1.38644,1.9653 3.51888,1.9653 1.95123,0 2.77817,-0.45746 2.77817,-1.35126 a 0.93250521,0.93250521 0 0 0 -0.33429,-0.78471 7.5269006,7.5269006 0 0 0 -3.22155,-0.51727 11.878005,11.878005 0 0 1 -2.19226,-0.32726 1.9846526,1.9846526 0 0 1 -1.72427,-2.09725 c 0,-1.60638 1.36357,-2.63037 4.12063,-2.63037 2.88373,0 4.45314,0.92898 4.79976,2.91891 h -1.56766 c -0.20409,-1.23161 -1.36357,-1.65211 -3.25673,-1.65211 -1.85622,0 -2.61102,0.47152 -2.61102,1.32837 a 0.81638192,0.81638192 0 0 0 0.26392,0.65099 c 0.3343,0.32375 1.17531,0.45747 2.82566,0.55423 a 13.38057,13.38057 0 0 1 2.4773,0.32726 c 1.30551,0.32373 1.90548,0.93954 1.90548,2.12365 0,1.75064 -1.32838,2.76233 -4.29832,2.76233 a 8.5649724,8.5649724 0 0 1 -2.7289,-0.35189 m 12.22286,0.10738 v -8.57376 h 8.02131 v 1.26855 h -6.59616 v 2.43507 h 5.57392 v 1.25624 h -5.57392 v 2.30312 h 6.83544 v 1.31254 z m 19.19553,-4.41092 c 0.8023,-0.14428 1.27912,-0.52784 1.27912,-1.35302 v -0.0967 c 0,-1.14541 -0.81287,-1.43395 -2.62158,-1.43395 h -3.01569 v 2.9805 h 2.95763 a 9.9320602,9.9320602 0 0 0 1.40755,-0.095 m -4.35814,4.41093 h -1.47089 v -8.57553 h 4.49889 c 2.93476,0 4.12942,0.80934 4.12942,2.62861 a 2.128927,2.128927 0 0 1 -1.99697,2.28727 c 1.31607,0.27799 1.8439,0.98881 1.8439,2.5688 v 0.54366 a 0.61228645,0.61228645 0 0 0 0.20234,0.54367 h -1.56767 c -0.15659,-0.0827 -0.19178,-0.32373 -0.19178,-0.55598 v -0.52784 a 2.5547124,2.5547124 0 0 0 -0.21465,-1.16651 c -0.29911,-0.58062 -0.9677,-0.78646 -2.20459,-0.78646 h -3.03504 z m 14.94296,-3.37638 h 3.87078 l -1.96706,-3.82678 z m -0.61053,1.23162 -1.06446,2.14652 h -1.60462 l 4.41621,-8.57553 h 1.54128 l 4.48833,8.57553 h -1.5835 l -1.1014,-2.14652 z m 20.47113,2.143 h -1.45858 v -8.57377 h 7.80314 v 1.32486 h -6.34456 v 2.63916 h 6.06833 v 1.32486 h -6.06833 z m 17.88299,-1.42868 a 2.6497223,2.6497223 0 0 0 1.71194,-2.76233 3.0244839,3.0244839 0 0 0 -3.54881,-3.21977 c -2.16587,0 -3.51887,0.98881 -3.51887,3.20746 v 0.0123 a 3.0737484,3.0737484 0 0 0 0.44162,1.72426 3.4185992,3.4185992 0 0 0 3.06495,1.35125 5.102387,5.102387 0 0 0 1.85445,-0.31318 m -4.45315,1.19467 a 3.9235597,3.9235597 0 0 1 -2.43156,-3.95523 v -0.0352 a 4.2912834,4.2912834 0 0 1 0.65803,-2.46323 4.9528343,4.9528343 0 0 1 4.38453,-2.08142 6.3339977,6.3339977 0 0 1 2.5864,0.52783 4.1118201,4.1118201 0 0 1 2.48257,3.99746 v 0.0616 a 4.2226651,4.2226651 0 0 1 -0.67211,2.46321 5.0320092,5.0320092 0 0 1 -4.39861,1.93539 7.0483318,7.0483318 0 0 1 -2.60749,-0.47153 m 18.80668,-4.15581 c 0.80231,-0.14427 1.27912,-0.52783 1.27912,-1.35301 v -0.0967 c 0,-1.14541 -0.81286,-1.43395 -2.62157,-1.43395 h -3.01569 v 2.9805 h 2.95763 a 9.9320602,9.9320602 0 0 0 1.40755,-0.095 m -4.36518,4.41092 h -1.47089 v -8.57552 h 4.49889 c 2.93476,0 4.12942,0.80934 4.12942,2.62861 a 2.128927,2.128927 0 0 1 -1.99697,2.28727 c 1.31607,0.27799 1.8439,0.98881 1.8439,2.56879 v 0.54367 a 0.61228645,0.61228645 0 0 0 0.20234,0.54367 h -1.56767 c -0.15658,-0.0827 -0.19178,-0.32374 -0.19178,-0.55598 v -0.52784 a 2.5547124,2.5547124 0 0 0 -0.21465,-1.16651 c -0.29911,-0.58062 -0.9677,-0.78648 -2.20459,-0.78648 h -3.028 z m 14.06324,-0.002 h -1.43571 v -8.57377 h 1.40755 l 3.72123,3.97811 3.818,-3.97811 h 1.34421 v 8.57554 h -1.43746 v -6.5381 l -3.67548,3.77577 h -0.16539 l -3.5787,-3.76345 z m 16.8977,-3.37461 h 3.87077 l -1.96353,-3.83559 z m -0.61053,1.23162 -1.06446,2.14651 h -1.60814 l 4.41621,-8.57553 h 1.54479 l 4.48835,8.57553 h -1.5835 l -1.10142,-2.14651 z m 14.73182,2.14299 h -1.5096 v -7.28409 h -3.30248 v -1.28968 h 8.26939 v 1.28968 h -3.45907 z m 8.25531,-1.38468 h 2.30664 v -5.85015 h -2.2996 v -1.33894 h 6.01026 v 1.33894 h -2.30311 v 5.85015 h 2.29959 v 1.38645 h -6.01025 z m 17.29534,-0.044 a 2.6497223,2.6497223 0 0 0 1.71193,-2.76233 3.0244839,3.0244839 0 0 0 -3.55583,-3.21977 c -2.16588,0 -3.51888,0.9888 -3.51888,3.20746 v 0.0123 a 3.0737484,3.0737484 0 0 0 0.44162,1.72425 3.4185992,3.4185992 0 0 0 3.06495,1.35126 5.102387,5.102387 0 0 0 1.85445,-0.31318 m -4.45315,1.19465 a 3.9235597,3.9235597 0 0 1 -2.43156,-3.95523 v -0.0352 a 4.2912834,4.2912834 0 0 1 0.65803,-2.46321 4.9528343,4.9528343 0 0 1 4.38102,-2.07615 6.3339977,6.3339977 0 0 1 2.58638,0.52783 4.1118201,4.1118201 0 0 1 2.48962,4.0045 v 0.0616 a 4.2226651,4.2226651 0 0 1 -0.67211,2.46323 5.0320092,5.0320092 0 0 1 -4.39861,1.93539 7.0483318,7.0483318 0 0 1 -2.6075,-0.47154 m 14.41689,0.2428 h -1.43572 v -8.57377 h 1.50962 l 5.66012,6.20204 0.3343,0.42051 v -6.62255 h 1.42515 v 8.57554 h -1.40756 l -5.77097,-6.31817 -0.32374,-0.40116 z"
     id="path1"
     style="stroke-width:1.75944" />
</svg>
