<?xml version="1.0" encoding="UTF-8" standalone="no"?>
<svg
   width="300"
   height="150"
   viewBox="0 0 300 150"
   fill="none"
   version="1.1"
   id="svg4"
   sodipodi:docname="ags.svg"
   inkscape:version="1.4 (86a8ad7, 2024-10-11)"
   xmlns:inkscape="http://www.inkscape.org/namespaces/inkscape"
   xmlns:sodipodi="http://sodipodi.sourceforge.net/DTD/sodipodi-0.dtd"
   xmlns="http://www.w3.org/2000/svg"
   xmlns:svg="http://www.w3.org/2000/svg">
  <defs
     id="defs4" />
  <sodipodi:namedview
     id="namedview4"
     pagecolor="#ffffff"
     bordercolor="#000000"
     borderopacity="0.25"
     inkscape:showpageshadow="2"
     inkscape:pageopacity="0.0"
     inkscape:pagecheckerboard="0"
     inkscape:deskcolor="#d1d1d1"
     inkscape:zoom="2.8382863"
     inkscape:cx="138.46383"
     inkscape:cy="99.179564"
     inkscape:window-width="2048"
     inkscape:window-height="1215"
     inkscape:window-x="-8"
     inkscape:window-y="-8"
     inkscape:window-maximized="1"
     inkscape:current-layer="svg4" />
  <path
     d="m 246.88629,24.228711 -13.14784,-8.741037 c -2.78872,-1.80917 -6.37389,-1.909258 -9.16261,0 L 211.428,24.530489 c -3.98362,2.713 -4.88106,8.240588 -1.99181,12.257767 l 19.72325,-13.363293 13.24699,8.742556 v 17.583694 l -13.24699,8.740972 -13.24699,-8.740972 17.92814,-11.957526 c -2.68934,-3.61682 -7.5704,-4.420568 -11.25519,-2.009347 l -11.25517,7.433924 c -2.2925,1.508892 -3.68593,4.12019 -3.68593,7.235064 0,3.114873 1.39505,5.627705 3.78531,7.235064 l 13.14784,8.742579 c 2.78849,1.807733 6.37389,1.807733 9.16261,0 l 13.14761,-8.742579 c 2.29111,-1.505679 3.78531,-4.220263 3.78531,-7.033313 V 31.262184 c 0,-2.913191 -1.49558,-5.52458 -3.78531,-7.033473 z"
     fill="#09090b"
     id="path1"
     style="stroke-width:2.29524" />
  <path
     d="m 88.905418,97.82392 c -9.983433,0 -16.061259,-6.567834 -16.061259,-17.078668 0,-9.632675 6.077826,-16.64028 16.061259,-16.64028 3.819743,0 6.876088,1.112963 9.288848,2.521784 v 39.255994 h 9.377444 V 61.476919 c -3.29826,-2.276192 -9.810327,-6.307097 -18.666292,-6.307097 -15.28106,0 -25.958965,10.77318 -25.958965,25.574053 0,16.553975 10.765101,25.749865 24.309834,25.749865 1.04181,0 2.256453,-0.17581 2.778161,-0.26234 l 3.123825,-8.75911 c -0.780382,0.17582 -2.256453,0.35163 -4.252855,0.35163 z"
     fill="#09090b"
     id="path2"
     style="stroke-width:2.29524" />
  <path
     d="M 157.58207,101.93975 V 81.007599 h -9.20324 V 95.86769 c -2.25507,0.9858 -5.08878,1.69251 -8.50869,1.69251 -9.20163,0 -15.19382,-7.094139 -15.19382,-16.816325 0,-9.722189 5.99219,-16.640509 15.19382,-16.640509 6.51229,0 11.98277,3.327183 14.15201,4.905852 l 3.38846,-8.233036 c -2.60532,-1.839408 -9.11762,-5.60636 -17.53887,-5.60636 -15.45409,0 -25.09021,10.77318 -25.09021,25.574053 0,14.800875 9.63612,25.749865 25.09021,25.749865 9.6375,0 17.7117,-4.55537 17.7117,-4.55537 z"
     fill="#09090b"
     id="path3"
     style="stroke-width:2.29524" />
  <path
     d="m 188.14392,76.804091 -5.73054,-1.401245 c -5.38349,-1.313338 -8.16142,-2.889022 -8.16142,-6.481537 0,-3.327183 3.29826,-5.168198 8.68152,-5.168198 7.03239,0 12.59009,3.677438 14.50065,4.99376 l 3.29827,-7.708343 c -2.43066,-1.7515 -9.63749,-5.868706 -17.79892,-5.868706 -11.89257,0 -18.23203,6.307097 -18.23203,13.751487 0,8.495382 5.81775,12.962843 15.02099,15.239264 l 5.73053,1.401246 c 5.29604,1.313108 8.16142,2.539916 8.16142,6.218963 0,3.942998 -3.82135,6.043138 -9.63772,6.043138 -6.42508,0 -12.24282,-3.15113 -16.49568,-6.043138 l -3.5613,7.882778 c 3.21265,2.62645 11.11242,6.83179 20.05698,6.83179 10.59232,0 19.53687,-4.6419 19.53687,-14.714568 0,-9.107985 -6.68673,-12.874937 -15.36825,-14.976691 z"
     fill="#09090b"
     id="path4"
     style="stroke-width:2.29524" />
</svg>
