<?xml version="1.0" encoding="UTF-8" standalone="no"?>
<svg
   width="300"
   height="150"
   xml:space="preserve"
   version="1.1"
   id="svg1"
   sodipodi:docname="BNP_Paribas_logo.svg"
   inkscape:version="1.4 (86a8ad7, 2024-10-11)"
   xmlns:inkscape="http://www.inkscape.org/namespaces/inkscape"
   xmlns:sodipodi="http://sodipodi.sourceforge.net/DTD/sodipodi-0.dtd"
   xmlns="http://www.w3.org/2000/svg"
   xmlns:svg="http://www.w3.org/2000/svg"><defs
   id="defs1" /><sodipodi:namedview
   id="namedview1"
   pagecolor="#ffffff"
   bordercolor="#000000"
   borderopacity="0.25"
   inkscape:showpageshadow="2"
   inkscape:pageopacity="0.0"
   inkscape:pagecheckerboard="0"
   inkscape:deskcolor="#d1d1d1"
   inkscape:zoom="1.6788589"
   inkscape:cx="11.019389"
   inkscape:cy="133.72178"
   inkscape:window-width="2048"
   inkscape:window-height="1215"
   inkscape:window-x="-8"
   inkscape:window-y="-8"
   inkscape:window-maximized="1"
   inkscape:current-layer="g1" />
 <g
   class="layer"
   id="g1">
  <title
   id="title1">Layer 1</title>
  
  
  
  
  <g
   id="g2"
   transform="matrix(1.2574396,0,0,1.2574396,6.6014201,43.938256)"><path
     d="M 0,0 H 45.4 V 45.4 H 0 Z"
     fill="#008053"
     id="svg_1"
     style="fill:#000000;fill-opacity:1" /><path
     d="m 44,22.9 c 0,9.5 0.4,19.2 0.4,19.2 0,1.1 -0.7,1.8 -1.6,1.8 H 3.5 C 2.6,43.9 2,43.1 1.9,42.1 1.9,42.1 0.8,33.8 0.8,21.2 0.8,8.5 2,2.6 2,2.6 2.1,1.6 2.7,0.8 3.6,0.8 h 39.3 c 0.9,0 1.6,0.8 1.6,1.8 -0.1,0 -0.5,10.9 -0.5,20.3"
     fill="#008053"
     id="svg_2"
     style="fill:#000000;fill-opacity:1" /><path
     d="m 35.2,12.2 c -2.8,1.6 -3.7,1.8 -6.7,3.6 l 0.1,-0.3 c 1.6,-1.7 2.3,-2.5 3.3,-4 -2.8,0.2 -6.9,0.5 -9.8,1.1 l 0.2,-0.3 C 25,11 29.9,9.7 32.4,9.4 31.8,8.5 26.8,5.8 25.6,5.3 L 25.7,5 c 3.8,0.4 8.8,2.2 10.9,3.5 0.9,-0.3 1.9,-0.3 3.6,-0.5 0,0 -0.3,1 -2.1,2.3 0.5,1.2 -0.6,8.1 -1.6,9.9 0,-2.8 -0.2,-6.4 -1.3,-8 m -20.5,24.6 0.1,-0.3 c -1.5,-0.6 -3,-1 -4.2,-2.2 0.4,-1.1 0.8,-1.9 1.5,-2.9 l 0.1,-0.3 C 10.9,31.3 9.8,31.8 8.7,32 7.8,30.5 7.5,28.4 7,26.4 v 0.2 c -0.2,2.3 -0.3,3.9 0,5.7 -0.9,0.3 -1.7,0.3 -2.5,0.6 l -0.1,0.3 c 1.2,0.7 2.1,1.3 3.5,1.9 0.7,1.5 1.5,2.6 2.7,3.8 l 0.1,-0.3 C 10.5,37.7 10.2,37 10.3,36 c 1.5,0.5 2.7,0.7 4.4,0.8 M 18.9,14 c 0,0 -0.6,1.1 -1.1,2.5 h -0.1 c 3.5,0.5 6.8,1.9 7.6,2.4 l -0.1,0.3 c -3.6,-0.6 -5.5,-0.6 -6.9,-0.4 -1.3,0.1 -1.6,0.3 -1.6,0.3 -0.8,1.7 -1.2,4.5 -1.4,5.5 l -0.1,0.3 c -0.7,-1.6 -1.6,-4.8 -1.6,-4.8 -1.8,1 -6,4.9 -6,4.9 2.3,-4.6 4.7,-6.7 4.7,-6.7 C 11.5,17.5 9.4,17.1 7.8,17 l 0.1,-0.3 c 1,-0.3 3,-0.4 4.3,-0.5 h 2.5 C 16,15.1 18.1,14.1 18.9,14 m 4.4,19.9 c -0.7,1 -1.4,1.8 -2.2,2.7 -1.2,0.3 -2.6,0.2 -3.7,0.2 l -0.1,0.3 c 0.8,0.4 1.6,0.7 2.5,0.9 -0.7,0.6 -1.6,1.1 -2.3,1.6 l -0.1,0.3 c 1.4,-0.3 3.3,-0.9 4.7,-1.8 0.7,0 1.4,0 1.9,-0.1 l 0.1,-0.3 c -0.1,-0.3 -0.4,-0.5 -0.5,-1 1.3,-1 2.2,-1.9 3.3,-3 l 0.2,-0.3 c -1.1,0.7 -2.4,1.8 -3.6,2.4 -0.1,-0.7 -0.2,-1.2 -0.2,-1.9"
     fill="#008053"
     id="svg_3"
     style="fill:#000000;fill-opacity:1" /><path
     d="m 35.4,11.9 c -2.8,1.6 -3.7,1.8 -6.7,3.6 1.8,-1.9 2.4,-2.7 3.5,-4.4 -2.8,0.1 -6.9,0.5 -9.8,1.1 C 24.9,10.8 30,9.3 32.6,9 32,8.2 27,5.6 25.7,5 29.6,5.3 34.5,6.8 36.8,8.2 37.7,7.9 38.7,7.9 40.4,7.7 40,8.5 40,9 38.3,10.1 c 0.5,1.2 -0.6,8.1 -1.6,9.9 0,-2.9 -0.3,-6.5 -1.3,-8.1 M 14.9,36.5 c -1.6,-0.6 -2.8,-1.3 -4,-2.5 0.4,-1.1 0.8,-1.9 1.5,-2.9 C 11.1,31.3 10.1,31.4 9,31.7 8,30 7.6,28.4 7.2,26.3 c -0.3,2.3 -0.3,3.9 0,5.7 -1,0.3 -1.8,0.5 -2.6,0.9 1.2,0.7 2.2,1.3 3.5,1.9 0.7,1.5 1.5,2.6 2.7,3.8 -0.3,-1 -0.4,-1.8 -0.2,-2.9 1.3,0.5 2.6,0.7 4.3,0.8 m 4.2,-22.8 c -0.5,0.7 -1.1,1.9 -1.2,2.4 4.1,0.6 7.5,2.7 7.5,2.7 -3.6,-0.6 -5.5,-0.6 -6.9,-0.4 -1.3,0.1 -1.6,0.3 -1.6,0.3 -1,2.1 -1.6,5.8 -1.6,5.8 -0.7,-1.6 -1.6,-4.8 -1.6,-4.8 -1.8,1 -6,4.9 -6,4.9 2.3,-4.6 4.7,-6.7 4.7,-6.7 -0.8,-0.8 -2.9,-1.2 -4.5,-1.3 0.8,-0.3 2.9,-0.7 4.5,-0.8 h 2.5 c 1.3,-1 3.4,-2 4.2,-2.1 m 4.4,19.9 c -0.7,1 -1.4,1.8 -2.2,2.7 -1.4,0.4 -2.5,0.5 -3.9,0.5 0.8,0.4 1.6,0.7 2.5,0.9 -0.9,0.8 -1.6,1.3 -2.5,1.9 1.4,-0.3 3.3,-0.9 4.7,-1.8 0.7,0 1.4,0 1.9,-0.1 -0.1,-0.4 -0.2,-0.7 -0.3,-1.3 1.3,-1 2.3,-1.9 3.3,-3 -1.2,0.8 -2.2,1.4 -3.5,2 z"
     fill="#ffffff"
     id="svg_4" /><path
     d="m 62.4,16.6 c 3.1,0 4.2,0.6 4.2,2.3 0,0.5 -0.1,0.9 -0.4,1.2 -0.6,0.7 -1.7,1.1 -3.2,1 H 62.9 L 62,23.3 h 0.9 c 1.7,0 3.2,0.5 3.9,1.4 0.3,0.4 0.5,0.9 0.5,1.4 0,1.7 -1.5,2.6 -4.5,2.6 H 61 c -0.1,-2.3 -0.1,-5.5 -0.1,-6.4 0,-1.1 0.1,-3.5 0.1,-5.6 0.3,-0.1 0.9,-0.1 1.4,-0.1 M 56.8,15 c 0.1,1.6 0.2,5.8 0.2,7.3 0,1.4 0,6.1 -0.2,8.1 v 0.2 H 64 c 3.6,0 7.4,-1.1 7.4,-4.3 0,-2 -1.5,-3.5 -4.2,-4.3 2,-0.5 3.4,-1.9 3.4,-3.5 0,-2.6 -3,-3.6 -5.8,-3.7 h -8.1 z m 31.5,-0.2 h -3.6 l 0.1,4 c 0.1,2 0.1,4 0.3,5.9 -0.2,-0.6 -0.4,-0.9 -1.5,-2.5 0,-0.1 -3.7,-5.8 -5,-7.4 H 74.5 V 15 c 0.1,1.6 0.2,5.8 0.2,7.3 0,1.4 0,6.1 -0.2,8.1 v 0.2 h 3.7 V 30.4 C 78,26.6 78,22.7 78,18.9 c 0.1,0.5 0.3,0.8 0.9,1.7 0,0.1 6.4,9.3 6.7,9.9 v 0.1 h 3 v -0.2 c -0.2,-2 -0.2,-6.7 -0.2,-8.1 0,-1.5 0.1,-5.7 0.2,-7.3 v -0.1 h -0.3 z m 9.7,1.9 q 3.15,0 4.2,1.2 c 0.3,0.4 0.5,0.9 0.5,1.4 0,2.3 -2.6,2.8 -4.7,2.8 h -1.3 v -5.3 c 0.3,0 0.8,-0.1 1.3,-0.1 M 92.6,15 c 0.1,1.6 0.2,5.8 0.2,7.3 0,1.4 0,6.1 -0.2,8.1 v 0.2 H 97 v -0.2 c -0.1,-1.5 -0.2,-4.2 -0.2,-6.3 h 1.4 c 5.8,0 8.6,-1.5 8.6,-4.7 0,-3.7 -3.9,-4.5 -7.2,-4.6 H 92.7 V 15 m 27.8,1.7 q 3.15,0 4.2,1.2 c 0.3,0.4 0.5,0.9 0.5,1.4 0,2.3 -2.6,2.8 -4.7,2.8 h -1.3 v -5.3 c 0.3,0 0.8,-0.1 1.3,-0.1 M 115.1,15 c 0.1,1.6 0.2,5.8 0.2,7.3 0,1.4 0,6.1 -0.2,8.1 v 0.2 h 4.4 v -0.2 c -0.1,-1.5 -0.2,-4.2 -0.2,-6.3 h 1.4 c 5.8,0 8.6,-1.5 8.6,-4.7 0,-3.7 -4,-4.5 -7.3,-4.6 h -6.9 z m 21.1,4.5 c 0.3,0.8 1.3,2.8 2.3,5.3 h -4.6 c 0.8,-2 1.6,-3.8 2.3,-5.3 m -1.1,-4.7 c -0.9,2.3 -6.2,13.8 -7,15.6 l -0.1,0.2 h 3.7 v -0.1 c 0.3,-1.1 0.8,-2.3 1.3,-3.6 h 6.2 c 0.7,1.7 1.2,3 1.4,3.6 v 0.1 h 4.3 l -7,-15.8 h 0.1 z m 11.7,0.2 c 0.1,1.6 0.2,5.8 0.2,7.3 0,1.4 0,6.1 -0.2,8.1 v 0.2 h 4.4 v -0.2 c -0.2,-2 -0.3,-6.7 -0.3,-8.1 0,-1.1 0,-3.5 0.1,-5.5 0.3,0 0.8,-0.1 1.2,-0.1 2,0 3.5,0.4 4.2,1.2 0.3,0.4 0.5,0.9 0.5,1.4 0,1.8 -1.7,2.7 -3.3,2.8 h -0.9 l -0.3,-0.1 0.2,0.3 c 1.6,2.3 3.9,6.2 4.9,8.1 v 0.1 h 4.7 l -0.1,-0.2 c -0.2,-0.3 -3.3,-4.8 -4.6,-6.7 l -0.1,-0.1 c 2.4,-0.7 3.6,-2.1 3.6,-4.1 0,-3.6 -3.9,-4.5 -7.3,-4.6 h -6.9 z m 21.6,-0.2 h -4.2 v 0.1 c 0.1,1.6 0.2,5.8 0.2,7.3 0,1.4 0,6.1 -0.2,8.1 v 0.2 h 4.4 v -0.2 c -0.2,-2 -0.2,-6.7 -0.2,-8.1 0,-1.5 0.1,-5.7 0.2,-7.3 v -0.1 z m 9.7,1.8 c 3.1,0 4.2,0.6 4.2,2.3 0,0.5 -0.1,0.9 -0.4,1.2 -0.6,0.7 -1.7,1.1 -3.2,1 h -0.1 l -0.8,2.2 h 0.8 c 1.7,0 3.1,0.5 3.9,1.4 0.4,0.4 0.5,0.9 0.5,1.4 0,1.7 -1.5,2.6 -4.6,2.6 h -1.8 c -0.1,-2.3 -0.1,-5.5 -0.1,-6.4 0,-1.1 0,-3.5 0.1,-5.6 0.4,-0.1 1,-0.1 1.5,-0.1 M 172.5,15 c 0.1,1.6 0.2,5.8 0.2,7.3 0,1.4 0,6.1 -0.2,8.1 v 0.2 h 7.3 c 3.6,0 7.4,-1.1 7.4,-4.3 0,-2 -1.5,-3.5 -4.2,-4.3 2,-0.5 3.4,-1.9 3.4,-3.5 0,-2.6 -3,-3.6 -5.8,-3.7 h -8.1 z m 23.6,4.4 c 0.4,0.7 1.3,2.8 2.3,5.3 h -4.5 c 0.7,-1.9 1.5,-3.7 2.2,-5.3 m 1.8,-4.6 H 195 v 0.1 c -0.9,2.4 -6.4,14.5 -6.9,15.5 l -0.1,0.2 h 3.8 v -0.1 q 0.45,-1.65 1.2,-3.6 h 6.2 c 0.7,1.7 1.2,3 1.4,3.6 v 0.1 h 4.3 z m 8.4,4.1 c 0,2.8 2.8,3.9 5.2,4.9 1.9,0.8 3.9,1.6 3.9,2.9 0,0.4 -0.1,0.7 -0.3,1 -0.5,0.5 -1.4,0.8 -2.9,0.7 -1.5,-0.1 -3.1,-0.5 -5,-1.4 l -0.7,-0.4 V 30 l 0.5,0.1 h 0.3 c 0.9,0.2 2.7,0.6 4.4,0.6 4.6,0 7.4,-1.8 7.4,-4.9 0,-2.9 -2.8,-4 -5.4,-5 -1.9,-0.8 -3.8,-1.5 -3.8,-2.7 0,-0.4 0,-1.4 2.4,-1.4 1.8,0 3.5,0.7 4.5,1.1 l 0.9,0.4 v -3.5 l -0.9,-0.2 c -0.9,-0.2 -2.4,-0.5 -3.9,-0.5 -4,0.2 -6.6,2.1 -6.6,4.9"
     id="svg_5" /></g>
 </g>
</svg>
