<?xml version="1.0" encoding="UTF-8" standalone="no"?>
<svg
   version="1.1"
   width="300"
   height="150"
   id="svg15"
   sodipodi:docname="Cedrus&amp;Partners.svg"
   inkscape:version="1.4 (86a8ad7, 2024-10-11)"
   xmlns:inkscape="http://www.inkscape.org/namespaces/inkscape"
   xmlns:sodipodi="http://sodipodi.sourceforge.net/DTD/sodipodi-0.dtd"
   xmlns="http://www.w3.org/2000/svg"
   xmlns:svg="http://www.w3.org/2000/svg">
  <defs
     id="defs15">
    <clipPath
       clipPathUnits="userSpaceOnUse"
       id="clipPath7">
      <path
         d="M 88,53.439999 H 290.72 V 106.88 H 88 Z"
         transform="matrix(0.00493291,0,0,0.01871258,-0.43409629,-0.99999998)"
         clip-rule="evenodd"
         id="path7" />
    </clipPath>
  </defs>
  <sodipodi:namedview
     id="namedview15"
     pagecolor="#ffffff"
     bordercolor="#000000"
     borderopacity="0.25"
     inkscape:showpageshadow="2"
     inkscape:pageopacity="0.0"
     inkscape:pagecheckerboard="0"
     inkscape:deskcolor="#d1d1d1"
     inkscape:zoom="2.5100412"
     inkscape:cx="169.31993"
     inkscape:cy="74.301568"
     inkscape:window-width="2048"
     inkscape:window-height="1215"
     inkscape:window-x="-8"
     inkscape:window-y="-8"
     inkscape:window-maximized="1"
     inkscape:current-layer="svg15" />
  <path
     style="fill:#000000"
     d="m 31.411292,101.23568 c -2.723458,-0.18615 -6.511072,-0.91759 -9.044163,-1.746554 -6.399,-2.094096 -10.989968,-6.214727 -12.7455524,-11.439789 -1.1108003,-3.306022 -1.083146,-6.390144 0.087282,-9.734074 1.878542,-5.36702 6.299605,-9.38684 12.623713,-11.47802 l 1.176078,-0.388891 -0.795055,-0.877333 c -1.683518,-1.85774 -2.936736,-4.447693 -3.571471,-7.380951 -0.397883,-1.838711 -0.362691,-5.603503 0.06823,-7.299373 0.488585,-1.92279 1.68272,-4.24036 2.813711,-5.46083 3.163901,-3.414212 7.727556,-5.306606 13.761425,-5.706398 5.203561,-0.344777 10.434295,0.885977 14.093878,3.316188 1.790058,1.18872 3.586616,3.187652 4.498344,5.005062 1.902492,3.79237 1.922531,9.141694 0.04894,13.063703 -1.803956,3.776237 -5.521379,6.799029 -10.255993,8.339578 -0.81315,0.264583 -1.255917,0.297298 -4.023584,0.297298 H 37.037188 V 69.3184 c 0,-0.311385 0.06731,-0.426897 0.248763,-0.426897 0.48951,0 2.476835,-0.745623 3.806544,-1.428175 1.75818,-0.90249 2.750379,-1.634365 4.06785,-3.000565 2.523793,-2.617141 3.698347,-5.7534 3.698347,-9.875218 0,-4.125009 -1.227345,-7.281249 -3.807175,-9.790525 -2.383919,-2.318724 -4.93118,-3.416531 -7.943115,-3.423289 -1.867618,-0.0042 -2.864829,0.241371 -4.634853,1.141321 -3.124167,1.58845 -5.255334,4.318896 -6.204153,7.948746 -0.458262,1.753151 -0.63003,5.238403 -0.345591,7.012216 0.378388,2.359699 1.377718,4.763551 2.7932,6.718941 l 0.772068,1.066557 4.521803,-0.04664 c 2.498802,-0.02577 4.674588,0.01125 4.863306,0.08275 l 0.341502,0.12939 -0.48393,0.337975 c -0.266161,0.185886 -0.515976,0.37969 -0.555144,0.430676 -0.03917,0.05099 -0.808277,0.129137 -1.709133,0.173669 -1.633556,0.08075 -4.465594,0.468656 -4.810999,0.658961 -0.123232,0.0679 0.175501,0.419765 0.924117,1.088492 0.956684,0.85459 2.898858,2.644392 6.253503,5.762884 0.479121,0.445393 1.632786,1.499235 2.563699,2.341871 0.930914,0.842636 2.141497,1.955394 2.690183,2.472796 0.548687,0.517402 1.350708,1.260903 1.78227,1.652225 1.239959,1.124343 3.626639,3.304972 5.409714,4.942674 l 1.637919,1.504381 0.163186,-0.462937 c 0.08975,-0.254616 0.314075,-1.11266 0.498497,-1.906765 l 0.335312,-1.443829 3.881156,-4.97e-4 3.881156,-4.98e-4 v 0.553476 c 0,1.90095 -1.219782,5.650554 -2.476895,7.613959 -0.282748,0.441606 -0.514087,0.838268 -0.514087,0.881471 0,0.09679 -0.03503,0.06328 2.136416,2.044449 3.918876,3.57549 6.836537,6.302085 6.836619,6.388925 4.8e-5,0.0504 -1.823617,0.0737 -4.052587,0.0518 l -4.052673,-0.0398 -1.466489,-1.387704 C 57.280925,98.322431 56.23495,97.335899 55.763105,96.893373 l -0.8579,-0.804594 -1.136088,0.790421 c -3.110347,2.163989 -7.54717,3.67234 -12.459096,4.23561 -1.766976,0.20263 -7.651303,0.27448 -9.898729,0.12087 z m 7.762313,-1.808026 c 3.589633,-0.700185 6.592359,-2.249306 8.979047,-4.632337 1.091941,-1.090268 2.272746,-2.547998 2.272746,-2.805757 0,-0.124437 -2.225665,-2.281574 -5.332587,-5.168398 -0.547505,-0.508719 -1.638634,-1.53834 -2.424733,-2.288047 -0.786099,-0.749707 -3.223861,-3.050445 -5.417248,-5.112753 -2.193387,-2.062307 -4.500717,-4.240529 -5.127399,-4.840492 -4.810615,-4.605515 -5.911659,-5.576686 -6.230539,-5.495619 -0.587066,0.149245 -2.585133,1.483828 -3.692622,2.466438 -2.403429,2.132421 -3.881098,4.45809 -4.803451,7.560037 -1.748058,5.878862 -0.525836,10.833286 3.6641,14.852859 1.571251,1.507364 2.76385,2.350198 4.765444,3.367835 2.333843,1.186557 4.854812,1.951407 7.560795,2.293909 1.340119,0.169621 4.447678,0.06346 5.786447,-0.197675 z m 232.088905,1.322476 c -2.0664,-0.30064 -4.37439,-1.120284 -5.71659,-2.030148 -1.91711,-1.299586 -3.32275,-3.635153 -3.32876,-5.530945 l -0.002,-0.533621 h 2.35006 2.35006 v 0.468149 c 0,0.775748 0.41134,2.117821 0.8962,2.924009 1.05691,1.757336 3.46902,2.728199 6.77182,2.725619 3.18709,-0.0025 4.87293,-0.688505 5.76726,-2.346857 0.41666,-0.772615 0.44319,-2.882159 0.0454,-3.612598 -0.73845,-1.356077 -2.51581,-2.201524 -6.33065,-3.011323 -7.09732,-1.506593 -10.25955,-3.245192 -11.08932,-6.096945 -0.46694,-1.604744 -0.0397,-3.720607 0.99901,-4.947446 0.9549,-1.127863 3.03777,-2.092582 5.53552,-2.563874 2.03123,-0.383267 7.6539,-0.353434 9.51252,0.05047 3.44469,0.748586 5.65077,2.319108 6.64317,4.729307 0.18018,0.437592 0.32912,1.005321 0.33098,1.261619 l 0.003,0.465996 -2.29504,-0.0391 -2.29505,-0.0391 -0.24318,-0.782644 c -0.80613,-2.59447 -2.92089,-3.758124 -6.84581,-3.766927 -2.6206,-0.0059 -3.89132,0.378195 -4.88425,1.476253 -0.28642,0.316752 -0.55831,0.753622 -0.60418,0.970822 -0.0459,0.2172 -0.106,0.508519 -0.13361,0.647376 -0.0723,0.363372 0.19706,1.249492 0.51604,1.697872 0.3041,0.427485 1.83397,1.207801 3.25444,1.659951 0.50918,0.162076 2.25908,0.615645 3.88867,1.007931 4.68342,1.12742 6.33617,1.760949 7.95668,3.049925 1.43706,1.143055 2.18089,2.581341 2.3459,4.536101 0.26714,3.164506 -1.63627,5.671957 -5.20762,6.860251 -2.1269,0.707687 -3.75642,0.930137 -6.67423,0.911147 -1.46601,-0.01 -3.04873,-0.0731 -3.51716,-0.14127 z M 77.27303,88.37382 V 76.123488 l 6.765318,0.06701 c 5.506183,0.05454 6.98882,0.110763 7.966187,0.302108 4.957333,0.970528 6.991624,3.059569 6.987038,7.175087 -0.0039,3.45599 -1.269754,5.399726 -4.271143,6.558145 -2.138522,0.825386 -4.548329,1.136351 -8.866128,1.144099 l -2.67052,0.0048 v 4.624713 4.62471 H 80.228406 77.27303 Z m 13.232514,0.305802 c 1.144461,-0.449354 1.93906,-1.264927 2.297555,-2.3582 0.379833,-1.158344 0.390446,-3.892466 0.0198,-5.100649 -0.379427,-1.236804 -1.2984,-2.105203 -2.680135,-2.53264 -0.94391,-0.291997 -1.338807,-0.32474 -3.967999,-0.329011 l -2.919769,-0.0047 -0.03733,5.385322 -0.03733,5.385321 3.241958,-0.05754 c 2.977646,-0.05285 3.310547,-0.08447 4.083256,-0.387861 z m 8.082714,9.632174 c 0.643774,-1.271796 1.884732,-3.689098 2.757672,-5.371782 0.87295,-1.682685 2.68453,-5.204582 4.02573,-7.826439 1.3412,-2.621857 2.94939,-5.759547 3.57375,-6.972645 l 1.13519,-2.205632 1.93915,-0.03963 1.93914,-0.03963 1.98863,4.074595 c 1.09375,2.241028 1.98863,4.090795 1.98863,4.110595 0,0.0198 0.84014,1.757978 1.86698,3.862618 1.02683,2.10464 2.04593,4.210825 2.26465,4.680411 0.21873,0.469587 1.17318,2.445079 2.12101,4.389982 0.94783,1.944904 1.72332,3.561771 1.72332,3.593051 0,0.0313 -1.34965,0.0569 -2.99923,0.0569 h -2.99923 L 118.875,98.454095 c -0.57126,-1.193532 -1.21752,-2.570933 -1.43614,-3.060892 l -0.39749,-0.890833 -6.25572,0.03704 -6.25572,0.03704 -0.20547,0.355747 c -0.113,0.195661 -0.78148,1.556394 -1.48551,3.023851 l -1.28004,2.668102 h -2.070577 -2.070574 z m 17.155062,-6.545748 c -0.11147,-0.254359 -0.78972,-1.711144 -1.50721,-3.2373 -0.7175,-1.526155 -1.57253,-3.350545 -1.90005,-4.0542 -0.32753,-0.703654 -0.78938,-1.688308 -1.02633,-2.188121 l -0.43082,-0.908749 -1.12703,2.33042 c -0.61986,1.281731 -1.78796,3.694901 -2.59577,5.362599 -0.80781,1.667699 -1.46874,3.06045 -1.46874,3.095001 0,0.03455 2.30819,0.06282 5.12931,0.06282 h 5.12931 z m 12.73249,-3.379599 V 76.148746 l 6.16,1.19e-4 c 8.54707,1.65e-4 10.3573,0.21053 13.02413,1.513521 2.39954,1.172397 3.31407,2.76126 3.31776,5.764188 0.003,2.185432 -0.60541,3.705053 -1.97081,4.92494 -0.66027,0.589911 -2.17218,1.385831 -3.05363,1.607539 -0.6727,0.169202 -0.6776,0.174539 -0.35607,0.387753 1.40295,0.930331 2.36972,2.37957 3.82141,5.728535 1.27411,2.939295 1.76632,3.843235 2.14682,3.942649 0.1477,0.0386 0.26854,0.19076 0.26854,0.33816 0,0.25371 -0.15487,0.268 -2.90286,0.268 h -2.90287 l -0.353,-0.46247 c -0.50613,-0.663089 -1.16183,-2.007852 -1.875,-3.845407 -1.22481,-3.155837 -1.92122,-4.393563 -2.84494,-5.05633 l -0.63333,-0.454413 h -2.93209 -2.9321 v 4.909312 4.909308 h -2.99098 -2.99098 z m 13.03586,-0.01273 c 2.34704,-0.433482 3.45179,-1.753602 3.59701,-4.298266 0.14152,-2.47982 -0.43918,-4.107794 -1.73613,-4.867166 -1.18931,-0.696356 -1.88879,-0.808356 -5.53212,-0.885805 l -3.38266,-0.07191 v 5.139087 5.139086 h 3.10726 c 1.70899,0 3.48498,-0.06976 3.94664,-0.155029 z m 21.11206,1.115547 -0.0365,-11.134888 -5.0918,-0.03737 -5.09179,-0.03737 V 77.21419 76.148746 h 13.10336 13.10335 v 1.067241 1.067242 h -5.05619 -5.05618 v 11.170462 11.170459 h -2.9189 -2.9189 z m 18.8352,-1.102817 V 76.148746 h 2.89927 2.89926 l 0.56073,0.747069 c 0.30841,0.410888 1.07502,1.419431 1.7036,2.241207 1.91719,2.506476 5.98798,7.891669 8.06752,10.672416 1.08278,1.447891 2.03037,2.653874 2.10575,2.679962 0.0867,0.03002 0.13706,-2.960109 0.13706,-8.14661 v -8.194044 h 2.77734 2.77734 v 12.237703 12.237701 h -1.98792 -1.98791 l -0.36313,-0.46247 c -0.19972,-0.254358 -2.41761,-3.215953 -4.92864,-6.581322 -2.51102,-3.365368 -4.68688,-6.278938 -4.83524,-6.474599 -0.14835,-0.19566 -1.15385,-1.539116 -2.23443,-2.985456 l -1.9647,-2.629709 -0.0366,9.566779 -0.0366,9.566777 h -2.77634 -2.77634 z m 28.91284,0 V 76.148746 h 11.32301 11.323 v 1.067241 1.067242 h -8.33202 -8.33202 v 4.054237 4.054238 l 7.37063,0.03686 7.37064,0.03686 v 1.067241 1.067242 h -7.37065 -7.37066 l 2e-5,4.944886 2e-5,4.944886 h 8.33202 8.33202 v 1.067241 1.06724 h -11.323 -11.32301 z m 26.06428,-0.01141 v -12.24912 l 7.15699,0.05948 c 6.0365,0.05017 7.35768,0.09819 8.43885,0.306768 3.43583,0.662828 5.2742,1.749073 6.26681,3.702889 0.4903,0.965108 0.55126,1.208953 0.62875,2.515253 0.14517,2.447087 -0.35793,4.013087 -1.72951,5.383428 -0.70831,0.707666 -2.46271,1.703323 -3.40346,1.931525 -0.36671,0.08895 -0.35431,0.110181 0.65197,1.115551 1.19726,1.19617 1.71146,2.065882 2.9986,5.071752 1.11723,2.609063 1.68976,3.652484 2.07036,3.773172 0.15333,0.04862 0.27879,0.212163 0.27879,0.363413 0,0.26288 -0.12892,0.27501 -2.92264,0.27501 h -2.92264 l -0.61698,-0.960517 c -0.33933,-0.528285 -0.98483,-1.889018 -1.43443,-3.023852 -1.40605,-3.548988 -2.05549,-4.695783 -3.12506,-5.518284 -0.3943,-0.303215 -0.53084,-0.31597 -3.38266,-0.31597 h -2.97177 v 4.909312 4.909311 h -2.99099 -2.99098 z m 13.13195,-0.0063 c 2.36251,-0.500819 3.38097,-1.79978 3.50184,-4.466316 0.12258,-2.704299 -0.45951,-4.049417 -2.10616,-4.86704 -1.20011,-0.595897 -2.41545,-0.752165 -5.84984,-0.752165 h -2.69582 v 5.12276 5.122759 h 3.19761 c 1.82509,0 3.52158,-0.06868 3.95237,-0.159998 z M 85.109427,69.31062 c -2.157802,-0.335581 -4.445262,-1.132434 -5.737477,-1.99869 -2.938526,-1.969885 -4.536782,-4.921113 -4.865916,-8.98506 -0.491092,-6.063713 1.700291,-10.475459 6.256476,-12.595688 2.213375,-1.029999 5.734355,-1.5193 9.345924,-1.298779 3.92545,0.239687 6.813643,1.311236 8.752183,3.247151 1.182383,1.180777 1.880143,2.557572 2.330563,4.598555 l 0.0863,0.391322 h -2.342661 -2.342665 l -0.236832,-0.813936 c -0.713049,-2.450584 -2.196742,-4.016057 -4.5682,-4.819997 -1.606937,-0.544762 -4.091697,-0.645794 -5.614167,-0.228277 -1.373102,0.376555 -2.215831,0.854595 -3.182976,1.805549 -1.612067,1.58508 -2.353473,3.829529 -2.473223,7.487155 -0.18164,5.547985 1.238058,8.931569 4.378441,10.435195 1.762105,0.843702 4.188672,1.008017 6.414998,0.43439 2.537355,-0.653766 4.348302,-2.454115 5.067214,-5.037559 l 0.241234,-0.866886 h 2.247088 c 1.235899,0 2.279519,0.05242 2.319149,0.116492 0.14132,0.228447 -0.45059,2.128924 -0.96451,3.096838 -1.240842,2.336987 -3.549736,3.91654 -6.872838,4.701823 -1.340508,0.316776 -1.936518,0.372046 -4.46669,0.414206 -1.605873,0.02676 -3.303032,-0.01095 -3.771465,-0.0838 z m 113.233733,-0.0755 c -3.84885,-0.597592 -6.05017,-2.028336 -7.42254,-4.824258 -1.15245,-2.347907 -1.11144,-1.948842 -1.16655,-11.350112 l -0.049,-8.360059 h 2.99833 2.99832 v 8.330483 c 0,9.15287 0.0381,9.657105 0.85993,11.385282 0.76574,1.610223 1.92805,2.432827 3.92952,2.781052 1.14616,0.199415 3.24444,0.09406 4.25471,-0.213634 2.19972,-0.669957 3.41339,-2.475196 3.7732,-5.61235 0.0777,-0.677273 0.14176,-4.705276 0.1424,-8.951119 l 10e-4,-7.719714 h 2.92605 2.92605 l -0.0441,8.502358 c -0.0439,8.470811 -0.0453,8.506053 -0.3764,9.49845 -1.35228,4.052971 -3.81468,5.937878 -8.63155,6.607237 -1.50219,0.208746 -5.57202,0.166664 -7.11957,-0.07362 z m 29.61844,0.0094 c -4.81206,-0.777191 -8.01056,-3.188027 -8.74038,-6.587967 -0.0887,-0.413436 -0.16136,-0.908637 -0.16136,-1.100445 v -0.348743 h 2.33052 2.33052 l 0.17183,1.064242 c 0.31604,1.957328 1.25717,3.319081 2.85185,4.126434 1.24175,0.628674 2.43012,0.83923 4.77771,0.846519 1.81377,0.0056 2.28749,-0.04057 3.13671,-0.305892 1.94067,-0.606337 2.91517,-1.905263 2.91195,-3.881418 -0.002,-1.33295 -0.30549,-2.050015 -1.15277,-2.72516 -1.11965,-0.892188 -2.47607,-1.376396 -5.89288,-2.103609 -8.29871,-1.766245 -11.49385,-4.287412 -10.76113,-8.491199 0.0913,-0.523559 0.29642,-1.207494 0.45592,-1.519856 0.45454,-0.890177 1.50941,-1.833622 2.68532,-2.401684 2.00063,-0.966465 3.60007,-1.262785 7.34104,-1.360034 5.28106,-0.137284 8.39742,0.627888 10.57138,2.59563 1.19401,1.080748 1.80684,2.157273 2.08436,3.661484 l 0.0984,0.533621 h -2.33396 -2.33397 l -0.18084,-0.60477 c -0.80184,-2.681531 -2.62219,-3.840787 -6.35102,-4.044546 -2.68929,-0.146954 -4.46541,0.33299 -5.47563,1.47963 -0.89334,1.013969 -0.95552,2.437913 -0.14665,3.358335 0.7173,0.816213 2.7164,1.613089 5.76661,2.298668 3.74537,0.841825 6.44412,1.666836 7.80485,2.38595 1.10357,0.583208 2.51394,1.899693 3.00926,2.808938 1.06301,1.95132 1.07249,4.731425 0.0218,6.394306 -0.51289,0.811737 -1.94585,2.049986 -2.94131,2.541636 -1.20785,0.596549 -1.9365,0.84583 -3.47493,1.188823 -1.73102,0.385928 -6.52232,0.494893 -8.40324,0.191107 z M 105.8298,56.938397 V 44.700694 h 11.323 11.32301 v 1.067241 1.067242 h -8.33202 -8.33203 v 4.055518 4.055518 h 7.40624 7.40625 v 1.067242 1.067241 h -7.40809 -7.40809 l 0.0374,4.944886 0.0375,4.944886 8.29641,0.03672 8.29642,0.03672 v 1.066095 1.066095 h -11.32301 -11.323 z m 26.91884,-0.0116 V 44.6775 l 7.01457,0.06442 c 7.54803,0.06932 8.00137,0.107835 10.52616,0.894333 1.94312,0.605302 4.24908,1.985577 5.23881,3.13578 1.24316,1.444736 2.07697,3.188605 2.44183,5.10694 0.24149,1.269693 0.24058,4.097266 -0.002,5.478507 -0.85324,4.863195 -4.0024,8.039568 -9.16695,9.246147 -1.91679,0.447815 -4.13252,0.571477 -10.24873,0.57199 l -5.80393,4.86e-4 z m 13.64194,9.772592 c 3.03136,-0.764929 4.85807,-3.074373 5.52535,-6.985498 0.33419,-1.958749 0.22162,-5.662079 -0.21845,-7.186762 -0.88732,-3.074246 -2.88243,-4.964337 -5.78578,-5.481222 -0.72904,-0.129793 -2.19822,-0.20256 -4.1545,-0.205769 l -3.02659,-0.005 v 10.120919 10.120919 l 3.38266,-0.07593 c 2.39804,-0.05383 3.64307,-0.141646 4.27731,-0.30169 z m 16.26789,-9.760995 v -12.2377 h 6.41486 c 6.82613,0 8.34613,0.09446 10.49473,0.652212 2.24011,0.5815 3.82811,1.57944 4.6968,2.951584 0.44292,0.699609 0.8972,2.475691 0.8972,3.507776 0,3.330913 -1.66458,5.548696 -4.97711,6.631189 l -0.71862,0.234835 0.62341,0.475575 c 1.25184,0.954989 2.23528,2.575841 3.83611,6.322465 0.87426,2.046143 1.4298,2.991075 1.81814,3.092537 0.14995,0.03918 0.27263,0.191832 0.27263,0.339233 0,0.253715 -0.15496,0.268001 -2.9071,0.268001 h -2.90711 l -0.39249,-0.462472 c -0.4593,-0.5412 -1.44643,-2.569301 -1.99123,-4.091092 -0.59004,-1.648135 -1.55487,-3.564925 -2.13339,-4.2383 -0.95123,-1.107204 -1.23459,-1.180821 -4.37469,-1.136554 l -2.74139,0.03865 -0.0375,4.944886 -0.0375,4.944886 h -2.91793 -2.91792 z m 12.82425,-0.0011 c 0.94718,-0.179467 2.0789,-0.696809 2.60203,-1.189463 0.89442,-0.842312 1.37119,-2.94043 1.10412,-4.858863 -0.18265,-1.311977 -0.45482,-1.988818 -1.0486,-2.607711 -1.09118,-1.137327 -2.46795,-1.434043 -6.68689,-1.44113 l -2.95537,-0.005 v 5.122759 5.12276 h 3.11397 c 1.71268,0 3.45451,-0.06452 3.87074,-0.143388 z"
     id="path1" />
</svg>
