<?xml version="1.0" encoding="UTF-8" standalone="no"?>
<svg
   viewBox="18.535 37.535 300.00001 150.00001"
   color="#000000"
   version="1.1"
   id="svg2"
   sodipodi:docname="Colisee.svg"
   width="300"
   height="150"
   inkscape:version="1.4 (86a8ad7, 2024-10-11)"
   xmlns:inkscape="http://www.inkscape.org/namespaces/inkscape"
   xmlns:sodipodi="http://sodipodi.sourceforge.net/DTD/sodipodi-0.dtd"
   xmlns="http://www.w3.org/2000/svg"
   xmlns:svg="http://www.w3.org/2000/svg">
  <defs
     id="defs2" />
  <sodipodi:namedview
     id="namedview2"
     pagecolor="#ffffff"
     bordercolor="#000000"
     borderopacity="0.25"
     inkscape:showpageshadow="2"
     inkscape:pageopacity="0.0"
     inkscape:pagecheckerboard="0"
     inkscape:deskcolor="#d1d1d1"
     inkscape:zoom="2.2497849"
     inkscape:cx="41.781772"
     inkscape:cy="82.452327"
     inkscape:window-width="2048"
     inkscape:window-height="1215"
     inkscape:window-x="-8"
     inkscape:window-y="-8"
     inkscape:window-maximized="1"
     inkscape:current-layer="svg2" />
  <path
     d="m 118.21696,98.087406 c 0,-2.006879 -0.31585,-3.981949 -1.01035,-5.893312 -0.63151,-1.815796 -1.61028,-3.472299 -2.87312,-4.937683 -1.29443,-1.433506 -2.84136,-2.580324 -4.60938,-3.376731 -3.91488,-1.688365 -8.33493,-1.688365 -12.249804,0 -1.736436,0.796407 -3.31495,1.943225 -4.609381,3.376731 -1.26302,1.433523 -2.241609,3.090043 -2.873119,4.937683 -1.357599,3.790865 -1.357599,7.963986 0,11.754776 0.63151,1.81592 1.610099,3.47235 2.873119,4.93772 1.294431,1.43361 2.84136,2.58036 4.609381,3.37673 3.914874,1.68836 8.334924,1.68836 12.249804,0 1.73643,-0.79637 3.31495,-1.94312 4.60938,-3.37673 1.26284,-1.43344 2.24161,-3.1218 2.87312,-4.93772 0.66292,-1.87943 1.01035,-3.88641 1.01035,-5.893221 z m 3.91487,0 c 0,2.580354 -0.442,5.128784 -1.38918,7.518074 -0.88401,2.22998 -2.21003,4.23679 -3.91488,5.92516 -1.67344,1.68836 -3.69396,3.02635 -5.8724,3.91834 -4.73572,1.87943 -9.97661,1.87943 -14.712327,0 -4.451633,-1.81574 -7.956088,-5.35178 -9.787277,-9.8435 -0.947178,-2.38929 -1.420767,-4.93772 -1.389183,-7.518074 0,-2.580288 0.442005,-5.128767 1.389183,-7.517971 0.88401,-2.229912 2.210025,-4.236844 3.914876,-5.925209 1.673268,-1.688366 3.693961,-3.02632 5.872401,-3.918287 4.735717,-1.879503 9.976607,-1.879503 14.712327,0 4.45163,1.815787 7.95609,5.351809 9.78728,9.843496 0.94718,2.389204 1.42059,4.937683 1.38918,7.517971 z M 66.597302,89.390772 c -1.389184,-2.038793 -3.220372,-3.727159 -5.367229,-4.937683 -2.083687,-1.083095 -4.420049,-1.624659 -6.787821,-1.592797 -3.851831,-0.06371 -7.577267,1.560936 -10.197717,4.427981 -2.746726,2.803321 -4.293747,6.594186 -4.230596,10.544377 -0.09472,4.07748 1.420718,8.02758 4.199012,10.95849 2.620449,2.89881 6.345903,4.52348 10.197717,4.45979 4.735718,0.12738 9.218761,-2.19805 11.902375,-6.18008 h 4.16755 c -1.51552,2.93073 -3.788713,5.38371 -6.566906,7.07207 -2.80995,1.68837 -5.998564,2.54843 -9.250519,2.5165 -4.925171,0.12755 -9.692494,-1.81574 -13.133792,-5.38354 -3.441306,-3.59973 -5.335609,-8.47376 -5.209323,-13.506919 0,-2.452979 0.473575,-4.90589 1.420718,-7.135802 0.978718,-2.293636 2.399454,-4.364275 4.167453,-6.084502 1.64174,-1.656503 3.599177,-2.994457 5.714466,-3.88643 2.210026,-0.891968 4.546317,-1.33795 6.914141,-1.33795 6.882747,-0.127424 13.228564,3.759013 16.322599,10.002789 h -4.230545 z m 93.010028,23.254858 h -16.5751 V 80.248101 h -3.59921 v 35.710569 h 20.20589 v -3.31304 z m 18.56403,-32.397529 h -3.59904 v 35.710569 h 3.59904 z m 29.67732,2.421055 c 2.74662,-0.12743 5.33583,1.17868 6.88205,3.472299 l 3.15842,-2.484756 c -1.23213,-1.497246 -2.81134,-2.644047 -4.57797,-3.376742 -1.76837,-0.668978 -3.59973,-0.987537 -5.4625,-0.95568 -1.4206,0 -2.84137,0.191134 -4.23054,0.605263 -1.32602,0.382272 -2.58887,1.019389 -3.69397,1.847641 -1.10492,0.860113 -1.98893,1.943225 -2.62044,3.185611 -0.66293,1.401661 -1.01017,2.930752 -0.97859,4.491687 -0.0632,1.40166 0.22091,2.803321 0.78926,4.109431 0.47358,1.051233 1.19968,1.97507 2.0521,2.707753 0.88401,0.732683 1.86277,1.337989 2.93611,1.783986 1.1051,0.477754 2.21003,0.891993 3.34671,1.274126 1.16811,0.35055 2.2732,0.732685 3.37812,1.114995 1.01035,0.35037 1.98824,0.79637 2.90453,1.40167 0.82084,0.50969 1.54624,1.24237 2.05297,2.07067 0.53624,0.95569 0.82084,2.00699 0.78787,3.09005 0,0.98744 -0.22039,1.94312 -0.69416,2.77142 -0.44252,0.79637 -1.04123,1.4973 -1.76836,2.03874 -0.7254,0.57355 -1.54624,0.98762 -2.43042,1.2743 -0.88401,0.28669 -1.79961,0.446 -2.7152,0.446 -1.70485,0.0318 -3.37812,-0.35038 -4.86206,-1.17868 -1.32584,-0.73268 -2.43094,-1.81574 -3.2202,-3.15373 l -3.31512,2.35736 c 1.26302,1.78398 2.99945,3.21742 4.9884,4.07748 1.95752,0.8283 4.07279,1.24237 6.21965,1.24237 1.42076,0 2.84136,-0.25476 4.19826,-0.70075 1.35882,-0.446 2.62045,-1.14675 3.75713,-2.00699 1.10545,-0.89199 2.05297,-2.00681 2.7159,-3.24935 0.69415,-1.33782 1.04123,-2.83511 1.04123,-4.36417 0.0954,-1.81574 -0.37832,-3.59973 -1.35708,-5.09703 -0.88331,-1.24236 -2.05297,-2.261732 -3.34584,-2.994416 -1.39004,-0.796373 -2.87381,-1.401678 -4.38916,-1.815743 -1.48393,-0.414169 -2.9677,-0.923855 -4.38847,-1.529126 -1.23125,-0.509685 -2.39952,-1.27423 -3.3467,-2.198068 -0.94701,-1.019387 -1.45218,-2.357342 -1.35742,-3.759003 0,-1.019387 0.18933,-2.006932 0.66291,-2.89889 0.41043,-0.796407 1.01035,-1.497229 1.73644,-2.006931 0.75767,-0.509703 1.57869,-0.92382 2.43111,-1.178663 0.91542,-0.25486 1.83102,-0.382272 2.74661,-0.350428 z m 31.63399,29.976474 h 19.03901 v 3.31304 H 235.85223 V 80.248101 h 22.06901 v 3.31303 h -18.43857 v 12.168985 h 17.23941 v 3.312972 H 239.48267 V 112.6137 Z m 58.88193,0 H 279.32734 V 99.075019 H 296.565 v -3.313058 h -17.23766 v -12.20083 h 18.43682 l -1e-5,-3.31303 h -22.06727 v 35.710569 h 22.66772 z"
     fill="currentColor"
     id="path1" />
  <path
     d="m 39.63503,134.08469 v 4.6191 h 4.988328 v 1.4973 H 39.63503 v 4.74647 h 5.58818 v 1.4973 h -7.387764 v -13.82554 h 7.35618 v 1.4973 h -5.58818 z m 1.704874,-4.04573 -2.746735,1.68837 v -1.43344 l 2.746735,-1.6566 2.715159,1.6566 v 1.43344 z m 8.745331,7.04015 v 6.40309 c 0,0.54161 0.126294,0.89199 0.347281,1.11499 0.221005,0.223 0.599877,0.31862 1.168166,0.31862 h 1.325998 v 1.52905 h -1.610151 c -1.010299,0 -1.736437,-0.223 -2.241571,-0.70092 -0.50516,-0.47776 -0.757731,-1.21044 -0.757731,-2.2935 v -6.40309 h -1.389143 v -1.4973 h 1.389143 v -2.73949 h 1.799592 v 2.73949 h 2.809861 v 1.4973 h -2.809861 z m 6.756373,0.25493 c 0.315668,-0.6053 0.757673,-1.11499 1.326015,-1.43344 0.599752,-0.35055 1.294431,-0.50985 2.146857,-0.50985 v 1.8796 h -0.47359 c -1.989109,0 -2.999282,1.08306 -2.999282,3.28111 v 5.92516 h -1.799604 v -10.86288 h 1.799604 v 1.75223 z m 15.375421,3.28111 c 0,0.35055 0,0.70093 -0.06317,1.08323 h -8.619183 c 0.06317,1.08307 0.410594,1.91137 1.073515,2.5165 0.662921,0.60531 1.483935,0.89199 2.43094,0.89199 0.757847,0 1.420768,-0.19106 1.925941,-0.54144 0.536757,-0.38231 0.88401,-0.86023 1.104926,-1.46554 h 1.92594 c -0.284083,1.0513 -0.852425,1.91136 -1.736435,2.5486 -0.852426,0.63706 -1.925941,0.98744 -3.220372,0.98744 -1.010173,0 -1.925766,-0.223 -2.746608,-0.70075 -0.789257,-0.47793 -1.420767,-1.11499 -1.894357,-1.97506 -0.473589,-0.86023 -0.694504,-1.84767 -0.694504,-2.96266 0,-1.11499 0.220915,-2.10243 0.66292,-2.96267 0.442005,-0.86006 1.073515,-1.49712 1.862773,-1.94312 0.820841,-0.47793 1.736435,-0.70092 2.778192,-0.70092 1.041931,0 1.925941,0.22299 2.715198,0.66899 0.789258,0.446 1.389183,1.08323 1.799604,1.87961 0.442005,0.76444 0.663094,1.65643 0.663094,2.64404 z m -1.831188,-0.38213 c 0,-0.70093 -0.157921,-1.2743 -0.442006,-1.75223 -0.315841,-0.50969 -0.726262,-0.89182 -1.231261,-1.11482 -0.505174,-0.25493 -1.073516,-0.38231 -1.705025,-0.38231 -0.915422,0 -1.673268,0.28669 -2.304605,0.86007 -0.63151,0.57337 -0.978761,1.40167 -1.073515,2.42104 h 6.787996 z m 13.796733,6.37115 c -0.915595,0 -1.704852,-0.15931 -2.430941,-0.47793 -0.694678,-0.31844 -1.262847,-0.76444 -1.673267,-1.33798 -0.410595,-0.57338 -0.63151,-1.24237 -0.63151,-2.00681 h 1.894356 c 0.06317,0.63706 0.315668,1.21043 0.789258,1.65643 0.473588,0.446 1.168094,0.66899 2.052104,0.66899 0.884009,0 1.515519,-0.22299 1.989108,-0.63706 0.505,-0.446 0.757674,-0.98761 0.757674,-1.65661 0,-0.54144 -0.157922,-0.95568 -0.442005,-1.27413 -0.284084,-0.31861 -0.663095,-0.57337 -1.073515,-0.76461 -0.442005,-0.15931 -1.010174,-0.35038 -1.736436,-0.54144 -0.915594,-0.223 -1.641683,-0.47793 -2.17844,-0.70093 -0.536584,-0.223 -1.010174,-0.6053 -1.389184,-1.11499 -0.378837,-0.50969 -0.568168,-1.21044 -0.568168,-2.07067 0,-0.76444 0.189331,-1.43344 0.568168,-2.00681 0.37901,-0.57338 0.915594,-1.01937 1.578689,-1.33799 0.694504,-0.31862 1.483762,-0.47793 2.367772,-0.47793 1.294431,0 2.336361,0.31862 3.157202,0.98761 0.820842,0.63707 1.294431,1.4973 1.389184,2.58036 h -1.957352 c -0.06317,-0.54162 -0.347425,-0.98761 -0.821015,-1.40168 -0.473588,-0.41406 -1.136509,-0.6053 -1.925767,-0.6053 -0.757673,0 -1.357599,0.19124 -1.831188,0.6053 -0.473589,0.38231 -0.694505,0.92375 -0.694505,1.62468 0,0.50969 0.126164,0.92375 0.410421,1.24237 0.284084,0.31862 0.631336,0.57337 1.041757,0.73268 0.410421,0.15931 1.010347,0.35038 1.736436,0.54162 0.915594,0.25475 1.641857,0.50968 2.178441,0.76444 0.536757,0.223 1.010346,0.60531 1.420767,1.11499 0.378837,0.50969 0.599926,1.17868 0.599926,2.07068 0,0.66899 -0.189506,1.30605 -0.536757,1.91136 -0.347253,0.6053 -0.884011,1.08306 -1.578516,1.43343 -0.694678,0.38231 -1.515519,0.54162 -2.462697,0.54162 z m 11.870964,0.0318 c -1.010347,0 -1.92594,-0.223 -2.746782,-0.70075 -0.820841,-0.47793 -1.452177,-1.11499 -1.925767,-1.97505 -0.473589,-0.86024 -0.694678,-1.84768 -0.694678,-2.96267 0,-1.11499 0.221089,-2.10243 0.694678,-2.93073 0.47359,-0.86007 1.13651,-1.52906 1.957351,-1.97506 0.820842,-0.47792 1.736436,-0.70092 2.778366,-0.70092 1.041758,0 1.957352,0.223 2.778193,0.70092 0.821015,0.446 1.483931,1.08306 1.957521,1.94312 0.47359,0.86024 0.72609,1.81592 0.72609,2.96267 0,1.14675 -0.2525,2.10243 -0.75767,2.96267 -0.47359,0.86006 -1.13651,1.49712 -1.988935,1.97505 -0.852426,0.47775 -1.768021,0.70075 -2.778367,0.70075 z m 0,-1.59274 c 0.63151,0 1.231262,-0.15931 1.799604,-0.446 0.568342,-0.31862 1.010346,-0.76461 1.357599,-1.36975 0.347252,-0.6053 0.536757,-1.33799 0.536757,-2.22998 0,-0.89199 -0.15792,-1.62468 -0.505173,-2.22998 -0.347426,-0.60513 -0.789431,-1.05113 -1.326015,-1.33782 -0.536758,-0.31862 -1.136683,-0.44599 -1.799604,-0.44599 -0.663093,0 -1.262846,0.15931 -1.799603,0.44599 -0.536758,0.28669 -0.978763,0.73269 -1.29443,1.33782 -0.315669,0.6053 -0.505174,1.33799 -0.505174,2.22998 0,0.89199 0.157921,1.62468 0.473589,2.22998 0.315668,0.60514 0.757673,1.05113 1.29443,1.36975 0.536758,0.28669 1.13651,0.446 1.76802,0.446 z m 8.808512,-11.21326 c -0.34725,0 -0.63151,-0.12755 -0.85242,-0.35055 -0.22109,-0.22282 -0.34726,-0.54144 -0.34726,-0.86006 0,-0.31844 0.12617,-0.63706 0.34726,-0.86006 0.22091,-0.223 0.53675,-0.35038 0.85242,-0.35038 0.31567,0 0.59975,0.12738 0.82084,0.35038 0.22092,0.223 0.34726,0.54162 0.34726,0.86006 0,0.31862 -0.12634,0.63724 -0.34726,0.86006 -0.22109,0.223 -0.50517,0.35055 -0.82084,0.35055 z m 0.85243,1.75202 v 10.86287 h -1.79961 v -10.86287 z m 3.63079,10.99025 c -0.34743,0 -0.63151,-0.12738 -0.8526,-0.35038 -0.22092,-0.22299 -0.34725,-0.54161 -0.34725,-0.86006 0,-0.31862 0.12633,-0.63723 0.34725,-0.86023 0.22109,-0.223 0.53676,-0.35038 0.8526,-0.35038 0.31567,0 0.59975,0.12738 0.82084,0.35038 0.22092,0.223 0.34725,0.54161 0.34725,0.86023 0,0.31845 -0.12633,0.63707 -0.34725,0.86006 -0.22109,0.223 -0.50517,0.35038 -0.82084,0.35038 z m 17.96411,-9.90719 c 0,1.14674 -0.37884,2.10243 -1.16809,2.86704 -0.75768,0.76462 -1.95735,1.11499 -3.56763,1.11499 h -2.62044 v 5.76585 h -1.79961 v -13.82537 h 4.42005 c 1.54711,0 2.7152,0.38214 3.50446,1.11482 0.82084,0.76462 1.23126,1.7203 1.23126,2.93091 z m -4.7673,2.51666 c 1.01035,0 1.73643,-0.22299 2.21002,-0.66899 0.47359,-0.446 0.69468,-1.0513 0.69468,-1.87943 0,-1.7203 -0.97876,-2.5486 -2.9047,-2.5486 h -2.62045 v 5.06509 h 2.62045 z m 8.77693,-7.39069 v 14.6856 h -1.7996 v -14.6856 z m 12.84973,8.82413 c 0,0.35055 0,0.70093 -0.0632,1.08323 h -8.61901 c 0.0632,1.08307 0.41042,1.91137 1.07334,2.5165 0.66309,0.60531 1.48394,0.89199 2.43111,0.89199 0.75768,0 1.4206,-0.19106 1.92577,-0.54144 0.53676,-0.38231 0.88401,-0.86023 1.1051,-1.46554 h 1.92577 c -0.28409,1.0513 -0.85243,1.91136 -1.73644,2.5486 -0.85242,0.63706 -1.92577,0.98744 -3.2202,0.98744 -1.01034,0 -1.92594,-0.223 -2.74678,-0.70075 -0.78926,-0.47793 -1.42077,-1.11499 -1.89436,-1.97506 -0.47358,-0.86023 -0.6945,-1.84767 -0.6945,-2.96266 0,-1.11499 0.22092,-2.10243 0.66292,-2.96267 0.44201,-0.86006 1.07352,-1.49712 1.86277,-1.94312 0.82084,-0.47793 1.73644,-0.70092 2.77837,-0.70092 1.04176,0 1.92577,0.22299 2.71502,0.66899 0.78944,0.446 1.38919,1.08323 1.79961,1.87961 0.442,0.76444 0.66309,1.65643 0.66309,2.64404 z m -1.83119,-0.38213 c 0,-0.70093 -0.15792,-1.2743 -0.442,-1.75223 -0.31567,-0.50969 -0.72609,-0.89182 -1.23127,-1.11482 -0.50517,-0.25493 -1.07351,-0.38231 -1.70485,-0.38231 -0.91559,0 -1.67327,0.28669 -2.30478,0.86007 -0.63151,0.57337 -0.97876,1.40167 -1.07351,2.42104 h 6.78799 z m 5.11455,-6.40309 c -0.34725,0 -0.63133,-0.12755 -0.85242,-0.35055 -0.22092,-0.22282 -0.34725,-0.54144 -0.34725,-0.86006 0,-0.31844 0.12633,-0.63706 0.34725,-0.86006 0.22109,-0.223 0.53676,-0.35038 0.85242,-0.35038 0.31585,0 0.59993,0.12738 0.82085,0.35038 0.22109,0.223 0.34742,0.54162 0.34742,0.86006 0,0.31862 -0.12633,0.63724 -0.34742,0.86006 -0.22092,0.223 -0.505,0.35055 -0.82085,0.35055 z m 0.88401,1.75206 v 10.86287 h -1.7996 v -10.86287 z m 8.30335,-0.19124 c 1.29443,0 2.36794,0.41423 3.18878,1.21061 0.82084,0.79637 1.23126,1.94312 1.23126,3.44042 v 6.40308 h -1.76802 v -6.14815 c 0,-1.08324 -0.2525,-1.91137 -0.82084,-2.48492 -0.53676,-0.57337 -1.26284,-0.86006 -2.21002,-0.86006 -0.94718,0 -1.70485,0.28669 -2.2732,0.892 -0.53658,0.6053 -0.82084,1.46536 -0.82084,2.61211 v 6.02078 h -1.7996 v -10.86288 h 1.7996 v 1.56099 c 0.34726,-0.54144 0.82084,-0.98744 1.42077,-1.27413 0.63134,-0.31861 1.29443,-0.44599 2.02052,-0.44599 z m 17.14343,5.2244 c 0,0.35055 0,0.70093 -0.0632,1.08323 h -8.619 c 0.0632,1.08307 0.41042,1.91137 1.07334,2.5165 0.66309,0.60531 1.48393,0.89199 2.43111,0.89199 0.75768,0 1.42077,-0.19106 1.92577,-0.54144 0.53676,-0.38231 0.88401,-0.86023 1.1051,-1.46554 h 1.92576 c -0.28408,1.0513 -0.85242,1.91136 -1.73643,2.5486 -0.85243,0.63706 -1.92577,0.98744 -3.2202,0.98744 -1.01035,0 -1.92594,-0.223 -2.74678,-0.70075 -0.78926,-0.47793 -1.42077,-1.11499 -1.89436,-1.97506 -0.47341,-0.86023 -0.6945,-1.84767 -0.6945,-2.96266 0,-1.11499 0.22091,-2.10243 0.66292,-2.96267 0.442,-0.86006 1.07351,-1.49712 1.86277,-1.94312 0.82084,-0.47793 1.73644,-0.70092 2.77837,-0.70092 1.04176,0 1.92576,0.22299 2.7152,0.66899 0.78925,0.446 1.38901,1.08323 1.7996,1.87961 0.442,0.76444 0.66292,1.65643 0.66292,2.64404 z m -1.86277,-0.38213 c 0,-0.70093 -0.15774,-1.2743 -0.442,-1.75223 -0.31567,-0.50969 -0.72609,-0.89182 -1.23126,-1.11482 -0.50518,-0.25493 -1.07334,-0.38231 -1.70485,-0.38231 -0.9156,0 -1.67327,0.28669 -2.30478,0.86007 -0.63134,0.57337 -0.97876,1.40167 -1.07334,2.42104 h 6.78782 z m 17.17503,-4.84227 c 0.85243,0 1.57851,0.19124 2.24161,0.54161 0.66292,0.35038 1.16809,0.86006 1.54693,1.56099 0.37883,0.70075 0.56834,1.56099 0.56834,2.54843 v 6.40308 h -1.76802 v -6.14815 c 0,-1.08324 -0.28409,-1.91137 -0.82084,-2.48492 -0.53676,-0.57337 -1.23126,-0.86006 -2.14686,-0.86006 -0.91559,0 -1.67326,0.31862 -2.21002,0.92393 -0.53676,0.60513 -0.82085,1.46536 -0.82085,2.61211 v 5.98885 h -1.76802 v -6.14816 c 0,-1.08306 -0.28425,-1.91136 -0.82085,-2.48473 -0.53675,-0.57338 -1.23142,-0.86007 -2.14685,-0.86007 -0.91559,0 -1.67344,0.31845 -2.21002,0.92375 -0.53676,0.60531 -0.82102,1.46537 -0.82102,2.61229 v 5.98885 h -1.79943 v -10.86287 h 1.79943 v 1.56098 c 0.34743,-0.57337 0.82102,-1.01937 1.42077,-1.30606 0.59992,-0.31861 1.26285,-0.44599 1.98912,-0.44599 0.91559,0 1.70485,0.19107 2.39936,0.60513 0.69467,0.41424 1.19968,1.01937 1.5471,1.81592 0.31567,-0.76462 0.78926,-1.36992 1.48375,-1.78399 0.69469,-0.41406 1.45236,-0.63706 2.30477,-0.63706 z m 17.11185,5.2244 c 0,0.35055 0,0.70093 -0.0632,1.08323 h -8.61901 c 0.063,1.08307 0.442,1.91137 1.07334,2.5165 0.6631,0.60531 1.48394,0.89199 2.43111,0.89199 0.75766,0 1.4206,-0.19106 1.92577,-0.54144 0.53675,-0.38231 0.88402,-0.86023 1.1051,-1.46554 h 1.92577 c -0.28408,1.0513 -0.85243,1.91136 -1.73644,2.5486 -0.85242,0.63706 -1.92576,0.98744 -3.2202,0.98744 -1.01035,0 -1.92594,-0.223 -2.74677,-0.70075 -0.78927,-0.47793 -1.42077,-1.11499 -1.89436,-1.97506 -0.47359,-0.86023 -0.69452,-1.84767 -0.69452,-2.96266 0,-1.11499 0.22093,-2.10243 0.66293,-2.96267 0.442,-0.86006 1.07351,-1.49712 1.86277,-1.94312 0.82085,-0.47793 1.73644,-0.70092 2.77836,-0.70092 1.04177,0 1.92576,0.22299 2.71504,0.66899 0.78943,0.446 1.38918,1.08323 1.7996,1.87961 0.44201,0.76444 0.66309,1.65643 0.66309,2.64404 z m -1.83119,-0.38213 c 0,-0.70093 -0.15792,-1.2743 -0.44201,-1.75223 -0.31566,-0.50969 -0.72609,-0.89182 -1.23126,-1.11482 -0.50516,-0.25493 -1.07351,-0.38231 -1.70484,-0.38231 -0.91561,0 -1.67344,0.28669 -2.30478,0.86007 -0.63151,0.57337 -0.97876,1.40167 -1.07352,2.42104 h 6.788 z m 9.44037,-4.84227 c 1.29461,0 2.36708,0.41423 3.18792,1.21061 0.82084,0.79637 1.23214,1.94312 1.23214,3.44042 v 6.40308 h -1.76838 v -6.14815 c 0,-1.08324 -0.2846,-1.91137 -0.82084,-2.48492 -0.53623,-0.57337 -1.26336,-0.86006 -2.21089,-0.86006 -0.9458,0 -1.70416,0.28669 -2.27162,0.892 -0.53799,0.6053 -0.82086,1.46536 -0.82086,2.61211 v 6.02078 h -1.80046 l -1e-5,-10.86288 h 1.80047 v 1.56099 c 0.34708,-0.54144 0.82085,-0.98744 1.41956,-1.27413 0.60045,-0.31861 1.2946,-0.44599 2.02173,-0.44599 z m 9.50302,1.68836 v 6.40309 c 0,0.54161 0.12668,0.89199 0.34708,1.11499 0.22041,0.223 0.60045,0.31862 1.16794,0.31862 h 1.32584 v 1.52905 h -1.61045 c -1.01001,0 -1.7354,-0.223 -2.2404,-0.70092 -0.50673,-0.47776 -0.75837,-1.21044 -0.75837,-2.2935 v -6.40309 h -1.39005 v -1.4973 h 1.39005 v -2.73949 h 1.7996 v 2.73949 h 2.80962 v 1.4973 h -2.80962 z m 5.55674,9.49313 c -0.34708,0 -0.63168,-0.12738 -0.85381,-0.35038 -0.2204,-0.22299 -0.34708,-0.54161 -0.34708,-0.86006 0,-0.31862 0.12668,-0.63723 0.34708,-0.86023 0.22213,-0.223 0.53797,-0.35038 0.85381,-0.35038 0.31584,0 0.59872,0.12738 0.82084,0.35038 0.2204,0.223 0.34708,0.54161 0.34708,0.86023 0,0.31845 -0.12668,0.63707 -0.34708,0.86006 -0.22212,0.223 -0.505,0.35038 -0.82084,0.35038 z"
     fill="currentColor"
     id="path2" />
</svg>
