<?xml version="1.0" encoding="UTF-8" standalone="no"?>
<svg
   id="Calque_1"
   data-name="Calque 1"
   viewBox="0 0 299.99999 155"
   version="1.1"
   sodipodi:docname="Logo_Carrefour_(2010).svg"
   width="300"
   height="155"
   inkscape:version="1.4 (86a8ad7, 2024-10-11)"
   xmlns:inkscape="http://www.inkscape.org/namespaces/inkscape"
   xmlns:sodipodi="http://sodipodi.sourceforge.net/DTD/sodipodi-0.dtd"
   xmlns="http://www.w3.org/2000/svg"
   xmlns:svg="http://www.w3.org/2000/svg">
  <sodipodi:namedview
     id="namedview3"
     pagecolor="#ffffff"
     bordercolor="#000000"
     borderopacity="0.25"
     inkscape:showpageshadow="2"
     inkscape:pageopacity="0.0"
     inkscape:pagecheckerboard="0"
     inkscape:deskcolor="#d1d1d1"
     inkscape:zoom="1.9674192"
     inkscape:cx="73.192333"
     inkscape:cy="103.435"
     inkscape:window-width="2048"
     inkscape:window-height="1215"
     inkscape:window-x="-8"
     inkscape:window-y="-8"
     inkscape:window-maximized="1"
     inkscape:current-layer="g65" />
  <defs
     id="defs1">
    <style
       id="style1">
      .cls-1 {
        fill: #014e9f;
      }

      .cls-2 {
        fill: #e50011;
      }
    </style>
  </defs>
  <g
     id="g65"
     transform="matrix(0.8941411,0,0,0.8941411,2.6992128,46.52344)">
    <path
       class="cls-2"
       d="m 260.94,8.48 c 0.15,-0.15 0.3,-0.21 0.42,-0.21 0.22,0 0.38,0.2 0.38,0.44 0,0.15 -0.07,0.3 -0.21,0.44 -5.57,6.92 -9.61,15.01 -9.61,26.24 0,11.23 4.05,19.15 9.61,26.07 0.14,0.14 0.2,0.31 0.21,0.44 0,0.24 -0.15,0.44 -0.38,0.44 -0.13,0 -0.27,-0.06 -0.42,-0.21 L 237.22,39.19 c -1.18,-1.01 -1.94,-2.2 -1.94,-3.88 0,-1.68 0.76,-2.87 1.94,-3.88 z"
       id="path1"
       style="fill:#000000;fill-opacity:1" />
    <path
       class="cls-1"
       d="m 279.17,6.54 c -9.29,0 -12.91,13.16 -12.91,28.85 0,15.69 3.63,28.68 12.91,28.68 5.58,0 10.33,-3.27 10.34,-5.95 0,-0.59 -0.23,-1.15 -0.72,-1.64 -2.64,-2.55 -3.67,-5.1 -3.68,-7.35 -0.01,-4.3 3.71,-7.5 7.15,-7.5 4.73,0 7.51,3.71 7.51,8.52 0,4.56 -1.94,8.35 -4.05,11.39 -0.08,0.12 -0.12,0.26 -0.12,0.38 0,0.24 0.14,0.43 0.35,0.43 0.13,0 0.28,-0.07 0.44,-0.23 l 23.73,-22.94 c 1.18,-1.01 1.94,-2.2 1.94,-3.88 0,-1.68 -0.76,-2.87 -1.94,-3.88 L 296.39,8.47 c -0.16,-0.16 -0.31,-0.23 -0.44,-0.23 -0.21,0 -0.35,0.2 -0.35,0.44 0,0.12 0.04,0.26 0.12,0.39 2.11,3.04 4.05,6.84 4.05,11.39 0,4.81 -2.79,8.53 -7.51,8.53 -3.43,0 -7.16,-3.2 -7.15,-7.5 0.01,-2.25 1.04,-4.8 3.68,-7.35 0.49,-0.49 0.72,-1.05 0.72,-1.64 -0.02,-2.68 -4.77,-5.95 -10.34,-5.95"
       id="path2"
       style="fill:#000000;fill-opacity:1" />
    <path
       class="cls-1"
       d="m 39.08,44.79 c 0,-2.39 1.05,-4.33 2.83,-5.64 1.77,-1.31 4.25,-2 7.13,-2 1.8,0 3.65,0.33 4.93,0.88 v -2.69 c -0.04,-2.71 -1.07,-4.24 -4.1,-4.28 -0.57,0 -1.84,0.15 -2.88,0.5 0.1,0.39 0.16,0.79 0.16,1.17 0,0.9 -0.29,1.74 -0.84,2.35 -0.54,0.61 -1.35,0.99 -2.33,0.99 -1.75,0 -3.08,-1.43 -3.08,-3.21 0.04,-3.29 4.03,-5.5 9.35,-5.5 4.23,0 6.88,1 8.3,2.82 1.29,1.64 1.35,4.03 1.35,7.4 v 8.78 c 0.02,1.7 0.99,2.17 3.11,2.49 l 0.24,0.03 -0.02,0.25 c -0.12,2.32 -1.83,3.28 -3.66,3.42 -0.16,0.01 -0.32,0.02 -0.47,0.02 -1.8,0 -3.54,-0.88 -4.37,-2.68 -1.13,0.95 -3.69,2.74 -7,2.74 -4.92,0 -8.65,-3.32 -8.66,-7.86 m 150.87,6.73 c -0.44,-0.61 -0.68,-1.39 -0.88,-2.28 -0.24,0.27 -0.53,0.57 -0.97,0.99 -1.61,1.51 -3.7,2.41 -6.07,2.41 -2.58,0 -4.78,-0.99 -6.18,-2.64 -2.15,-2.57 -2.13,-5.82 -2.14,-10.44 v -4.46 c -0.05,-1.8 -0.61,-2.42 -2.28,-2.46 -0.22,0 -0.45,0.02 -0.71,0.04 l -0.2,0.02 -0.07,-0.19 c -0.13,-0.33 -0.19,-0.65 -0.19,-0.96 0.05,-2.15 2.78,-3.31 4.38,-3.64 0.56,-0.08 1.09,-0.18 1.6,-0.18 1.3,0 2.27,0.42 2.88,1.17 0.61,0.75 0.85,1.79 0.85,3 l -0.04,7.6 c 0,2.81 0.2,4.91 0.82,6.26 0.63,1.34 1.58,1.97 3.33,1.99 1.9,0 3.06,-0.83 3.79,-2.05 0.74,-1.23 1,-2.88 1,-4.46 v -6.16 c -0.05,-1.8 -0.62,-2.42 -2.29,-2.46 -0.22,0 -0.45,0.02 -0.71,0.04 l -0.2,0.02 -0.08,-0.19 c -0.13,-0.33 -0.19,-0.65 -0.19,-0.96 0.05,-2.15 2.78,-3.31 4.39,-3.64 0.56,-0.08 1.09,-0.18 1.6,-0.18 1.31,0 2.27,0.42 2.88,1.17 0.61,0.75 0.85,1.79 0.85,2.99 0,0.87 -0.08,2.42 -0.08,8.9 0,2.74 -0.05,4.19 -0.05,4.64 0.04,1.87 0.67,2.7 2.4,2.74 0.18,0 0.37,-0.01 0.59,-0.03 l 0.2,-0.02 0.07,0.19 c 0.13,0.33 0.19,0.64 0.19,0.94 -0.07,2.1 -2.8,2.95 -4.38,3.26 -0.55,0.08 -1.05,0.17 -1.5,0.17 h -0.03 c -1.22,0 -2.05,-0.43 -2.57,-1.15 M 103.53,40.4 c 0,-3.78 1.24,-7.04 3.42,-9.36 2.17,-2.32 5.28,-3.68 8.96,-3.68 3.35,0 5.84,1.24 7.46,3.02 1.63,1.78 2.41,4.08 2.41,6.21 0,1.26 -0.26,2.42 -0.81,3.41 l -0.07,0.14 h -14.98 c 0.25,4.36 3.02,7.41 7.86,7.42 2.97,0 5.26,-1.63 6.02,-2.61 l 0.16,-0.21 0.21,0.16 c 0.43,0.31 0.9,0.88 0.89,1.96 -0.02,2.51 -2.96,5.73 -9.49,5.74 -6.63,-0.01 -12.02,-5.29 -12.03,-12.2 m 53.08,12.17 c -3.38,0 -6.45,-1.27 -8.69,-3.49 -2.23,-2.22 -3.61,-5.39 -3.61,-9.16 0.01,-7.46 5.89,-12.54 12.51,-12.56 3.57,0 6.66,1.27 8.85,3.48 2.2,2.21 3.48,5.36 3.48,9.08 0,3.72 -1.35,6.9 -3.59,9.13 -2.25,2.23 -5.39,3.52 -8.95,3.52 z m 45.91,-0.75 c -1.04,-0.28 -1.71,-0.85 -1.71,-1.71 0,-0.34 0.1,-0.7 0.28,-1.09 l 0.06,-0.12 0.13,-0.02 c 0.39,-0.08 1.07,-0.28 1.63,-0.74 0.62,-0.51 0.86,-1.22 0.86,-3.22 V 34.86 c -0.05,-1.69 -0.43,-2.29 -1.84,-2.33 -0.32,0 -0.69,0.04 -1.12,0.12 l -0.21,0.04 -0.08,-0.2 c -0.15,-0.38 -0.22,-0.74 -0.22,-1.08 0.04,-2.01 2.24,-3.05 3.72,-3.51 0.6,-0.18 1.13,-0.27 1.67,-0.27 2.01,0 3.1,1.44 3.56,3.3 1.32,-2.16 3.42,-3.59 5.49,-3.6 1.94,0 3.89,1.27 3.9,3.68 0,1.71 -1.21,3.51 -3.23,3.52 -1.5,0 -2.81,-0.99 -3.1,-2.44 -1.14,0.38 -2.75,1.81 -2.77,6.77 v 6.07 c 0,1.99 0.29,2.71 0.85,3.21 0.59,0.44 1.78,0.66 2.19,0.74 l 0.13,0.02 0.06,0.12 c 0.2,0.43 0.31,0.82 0.31,1.18 0,0.81 -0.6,1.37 -1.58,1.64 -0.99,0.29 -2.43,0.4 -4.39,0.4 -1.96,0 -3.53,-0.12 -4.58,-0.42 m -72.57,0 c -1.05,-0.29 -1.72,-0.86 -1.72,-1.72 0,-0.33 0.1,-0.69 0.28,-1.08 l 0.06,-0.12 0.13,-0.02 c 0.41,-0.08 1.06,-0.28 1.65,-0.73 0.6,-0.51 0.85,-1.23 0.86,-3.22 V 31.71 l -3.55,-0.12 -0.06,-0.16 c -0.18,-0.44 -0.27,-0.85 -0.27,-1.25 0,-1.29 1,-2.15 2.24,-2.15 h 1.55 v -1.46 c 0,-3.54 0.66,-5.55 1.56,-6.9 1.38,-2.15 3.79,-3.63 7.45,-3.62 4.6,0 8.46,2.14 8.49,5.58 0,1.49 -1.04,3.34 -3.21,3.34 -1.62,0 -3.11,-1.36 -3.12,-3.08 0,-0.63 0.21,-1.27 0.53,-1.75 -0.48,-0.42 -1.41,-0.68 -2.29,-0.67 -1.43,0.01 -2.21,0.5 -2.71,1.32 -0.5,0.82 -0.66,2.03 -0.66,3.39 v 3.8 h 6.1 l 0.07,0.16 c 0.18,0.44 0.27,0.87 0.27,1.27 0,1.32 -0.94,2.31 -2.13,2.42 -0.45,0.05 -0.94,0.05 -1.37,0.05 -1.01,0 -2.02,-0.07 -2.76,-0.09 v 13.12 c 0,1.98 0.33,2.7 0.93,3.21 0.54,0.43 2.05,0.66 2.49,0.74 l 0.13,0.02 0.06,0.12 c 0.16,0.36 0.25,0.68 0.25,1 0,0.91 -0.74,1.48 -1.85,1.78 -1.13,0.32 -2.74,0.44 -4.79,0.44 -2.05,0 -3.53,-0.12 -4.6,-0.42 m -42.57,0.02 c -1.04,-0.28 -1.7,-0.86 -1.7,-1.71 0,-0.34 0.1,-0.7 0.28,-1.09 l 0.06,-0.12 0.13,-0.02 c 0.4,-0.08 1.06,-0.28 1.65,-0.73 0.6,-0.51 0.85,-1.23 0.86,-3.22 V 34.87 c -0.05,-1.69 -0.45,-2.29 -1.85,-2.33 -0.32,0 -0.69,0.04 -1.12,0.12 L 85.5,32.7 85.42,32.5 c -0.15,-0.38 -0.23,-0.75 -0.23,-1.1 0.04,-2 2.24,-3.03 3.72,-3.49 0.59,-0.18 1.13,-0.27 1.64,-0.27 2.03,0 3.12,1.42 3.59,3.25 1.32,-2.14 3.43,-3.55 5.5,-3.56 1.92,0 3.89,1.27 3.9,3.68 0,1.71 -1.21,3.51 -3.25,3.52 -1.49,0 -2.79,-0.99 -3.08,-2.44 -1.15,0.38 -2.79,1.81 -2.8,6.77 v 6.07 c 0,1.99 0.3,2.7 0.9,3.21 0.56,0.44 1.75,0.66 2.18,0.74 l 0.13,0.02 0.06,0.12 c 0.19,0.42 0.3,0.81 0.3,1.17 0.01,0.81 -0.6,1.38 -1.59,1.65 -0.99,0.29 -2.44,0.41 -4.4,0.41 -1.96,0 -3.52,-0.12 -4.58,-0.42 M 67.3,51.82 c -1.04,-0.28 -1.7,-0.86 -1.7,-1.71 0,-0.34 0.1,-0.7 0.28,-1.09 l 0.06,-0.12 0.13,-0.02 c 0.4,-0.08 1.06,-0.28 1.65,-0.73 0.61,-0.51 0.85,-1.23 0.86,-3.22 V 34.87 c -0.05,-1.69 -0.45,-2.29 -1.85,-2.33 -0.32,0 -0.69,0.04 -1.12,0.12 l -0.22,0.04 -0.08,-0.2 c -0.15,-0.38 -0.23,-0.75 -0.23,-1.1 0.04,-2 2.24,-3.03 3.73,-3.49 0.58,-0.18 1.13,-0.27 1.63,-0.27 2.03,0 3.12,1.42 3.59,3.25 1.32,-2.13 3.43,-3.54 5.49,-3.55 1.92,0 3.9,1.27 3.9,3.68 0,1.71 -1.22,3.51 -3.25,3.52 -1.49,0 -2.8,-0.99 -3.08,-2.44 -1.15,0.38 -2.78,1.81 -2.8,6.77 v 6.07 c 0,1.99 0.29,2.7 0.89,3.21 0.56,0.44 1.75,0.66 2.18,0.74 l 0.13,0.02 0.06,0.12 c 0.19,0.42 0.3,0.81 0.3,1.17 0,0.81 -0.61,1.38 -1.59,1.65 -0.99,0.29 -2.44,0.41 -4.41,0.41 -1.97,0 -3.52,-0.12 -4.58,-0.42 m 83.91,-12.6 c 0.01,6.61 2.89,9.45 5.71,9.46 3.22,0 5.55,-2.85 5.57,-8.41 0,-2.9 -0.64,-5.23 -1.69,-6.8 -1.05,-1.58 -2.49,-2.41 -4.14,-2.41 -3.35,0 -5.43,3.03 -5.45,8.17 M 50.07,40.63 c -2.65,0.03 -4.44,1.27 -4.45,3.74 0.02,2.33 1.59,3.9 4.06,3.91 1.6,0 3.24,-0.88 4.28,-2.16 v -3.41 c 0,-0.47 -0.31,-0.97 -0.96,-1.38 -0.65,-0.41 -1.65,-0.69 -2.92,-0.69 m 68.73,-4.01 c 0.48,-0.01 0.61,-0.12 0.7,-0.27 0.1,-0.16 0.12,-0.48 0.12,-0.88 -0.05,-2.29 -1.83,-4.42 -4.58,-4.42 -3.46,0 -4.86,2.77 -5.08,5.57 h 8.85 z M 12.22,48.23 c -2.92,-3 -4.81,-7.37 -4.8,-12.82 0,-5.21 1.84,-9.61 4.71,-12.7 2.88,-3.09 6.78,-4.88 10.91,-4.88 7.39,0.01 12.62,5.18 12.64,9.66 0,2.39 -1.52,4.24 -3.57,4.25 -1.01,0 -1.96,-0.35 -2.65,-1 -0.69,-0.65 -1.13,-1.61 -1.12,-2.78 0,-1.4 0.72,-2.25 1.25,-2.86 -0.97,-1.69 -2.9,-3.08 -5.91,-3.08 -2.56,0 -4.72,1.33 -6.28,3.67 -1.55,2.34 -2.47,5.7 -2.47,9.68 0,3.98 0.96,7.32 2.55,9.65 1.6,2.33 3.8,3.66 6.37,3.66 3.01,0 4.94,-1.38 5.91,-3.08 -0.54,-0.6 -1.25,-1.45 -1.25,-2.84 0,-1.17 0.43,-2.13 1.12,-2.79 0.7,-0.65 1.64,-1 2.65,-1 2.05,0 3.56,1.84 3.56,4.23 -0.02,4.49 -5.25,9.65 -12.64,9.66 -4.12,0 -8.07,-1.63 -10.99,-4.63 m 0.01,0 c -2.92,-3 -4.81,-7.37 -4.8,-12.82 0,-5.21 1.84,-9.61 4.71,-12.7 2.88,-3.09 6.78,-4.88 10.91,-4.88 7.39,0.01 12.62,5.18 12.64,9.66 0,2.39 -1.52,4.24 -3.57,4.25 -1.01,0 -1.96,-0.35 -2.65,-1 -0.69,-0.65 -1.13,-1.61 -1.12,-2.78 0,-1.4 0.72,-2.25 1.25,-2.86 -0.97,-1.69 -2.9,-3.08 -5.91,-3.08 -2.56,0 -4.72,1.33 -6.28,3.67 -1.55,2.34 -2.47,5.7 -2.47,9.68 0,3.98 0.96,7.32 2.55,9.65 1.6,2.33 3.8,3.66 6.37,3.66 3.01,0 4.94,-1.38 5.91,-3.08 -0.54,-0.6 -1.25,-1.45 -1.25,-2.84 0,-1.17 0.43,-2.13 1.12,-2.79 0.7,-0.65 1.64,-1 2.65,-1 2.05,0 3.56,1.84 3.56,4.23 -0.02,4.49 -5.25,9.65 -12.64,9.66 -4.12,0 -8.07,-1.63 -10.99,-4.63 m 0.01,0 c -2.92,-3 -4.81,-7.37 -4.8,-12.82 0,-5.21 1.84,-9.61 4.71,-12.7 2.88,-3.09 6.78,-4.88 10.91,-4.88 7.39,0.01 12.62,5.18 12.64,9.66 0,2.39 -1.52,4.24 -3.57,4.25 -1.01,0 -1.96,-0.35 -2.65,-1 -0.69,-0.65 -1.13,-1.61 -1.12,-2.78 0,-1.4 0.72,-2.25 1.25,-2.86 -0.97,-1.69 -2.9,-3.08 -5.91,-3.08 -2.56,0 -4.72,1.33 -6.28,3.67 -1.55,2.34 -2.47,5.7 -2.47,9.68 0,3.98 0.96,7.32 2.55,9.65 1.6,2.33 3.8,3.66 6.37,3.66 3.01,0 4.94,-1.38 5.91,-3.08 -0.54,-0.6 -1.25,-1.45 -1.25,-2.84 0,-1.17 0.43,-2.13 1.12,-2.79 0.7,-0.65 1.64,-1 2.65,-1 2.05,0 3.56,1.84 3.56,4.23 -0.02,4.49 -5.25,9.65 -12.64,9.66 -4.12,0 -8.07,-1.63 -10.99,-4.63"
       id="path3"
       style="fill:#000000;fill-opacity:1" />
  </g>
</svg>
